<svg xmlns="http://www.w3.org/2000/svg" viewBox="0 0 1458.56 1962.17"><defs><style>.a{fill:#CCC;}</style></defs><title>grand-abaco-01</title><path class="a" d="M1404.15,1172.42c-1.75,0-3.75,2.75-5,3.75s-1.75-1-2.75,0-0.75,5-1.75,6-2.75,1-2.5,0a25.44,25.44,0,0,1,1.25-4.5,8.28,8.28,0,0,0,0-6c-0.75-1.75-1.75,1.75-2,4s-3.25,2-4.25,3.5-1.5,2-3.75,2.5-2.75.25-2.75,1.75-1.5,1.5-3,0-5-1-6.75-2.25-2.75-1-4.25-.75,0.25,2.25.25,3.5,3.75,2.25,5.25,2.75,2.75,3.25,1.25,4.5-6.5,1.5-9.25-1.25-7-4.25-9-6.5-4-9.25-4.5-12-3.5-3-5.5-3.75-5.5-1.5-6.75-5.75-3.5-6.25-2.25-10.25,2-11,3.25-14,5.25-7.25,6.75-10.25a20.22,20.22,0,0,1,10.25-9.5c5.25-2,4.25.25,6.5,4s1.75,3.25,4.75,1.75,2-.5,3.5,2.5,1.75,6.5,5.25,7,5,0.75,7.75.25,4.5,2.75,5.5.5,0.5-3.25,2-5.25,3-2,5-2.5-1.5-3-1.5-5.25-0.25-4.75.75-5.25-1-3.5-.75-5.25a13.1,13.1,0,0,0-.75-6.25,8.46,8.46,0,0,1,.25-6.5c1-2.25,0-3.75-.25-5s-4,3-5.25,1.5-1.5,1-1.5,2-5.75,9.5-10.75,11.5-13.25-2-16-3.25-11-12-10.5-14.75-3.5-7-3.75-8.75-1.5-3.75-2.25-5.5-1.75.25-2.75,0.25-0.75,1.75-.5,3.25,1.5,2.75,2.25,3.75-2.25,3.25-2.25,3.25-3-2.5-3.25-4.5-0.5-3-1.75-4.25-2.75-3-2.5-4.25-2-1.75-.5-3.5-3-3-2.75-5-0.5-4-1.5-3.5-3.5-3-5.5-8.5-2.75-13.75-3-16-2.25-3.5-4.75-5.75-5.5-9.5-5.25-17,1.25-9.25-.25-11.5-2.25-4.25-1.25-7,0.5-5,0-7.75-0.5-4,1.25-7.75-2.25-7.5-2.25-12.25,2.25-4.75,4-5.25,0-2.75-.25-5.25-2.75-2.5-2.75-4,2.5-3.25,3.25-3,0.5-4,1.25-5,1.25-1.75.25-4.25,5-.5,5.75-1.75-2-2.75-.75-4.5,3.5-4.25,5.5-3.75,1.25-.75,3.25-2-0.5-1-.25-3.25-3.25-2.25-3-4,3-5.25,4.75-6,1,1,.5,2-0.25,4.25-.25,4.25a12.81,12.81,0,0,1,3.5-2.75c2-1,2.25-3,2.5-4.25s3-3,4-4.75,0-2-1.25-4-2.25-2.75-5-3.5-4.75-5-6.5-5.75-1.25-1.25-.25-2.75-3-5-4-8-4.5-7-2.5-8.75-2.75-19-2.25-31.25,5.25-16.5,7.25-18,2.25,0.75,3.75.5,2.25-2.25,3.25-4.75,2-3.5,4.25-3.5,3.5-2.5,4-4.5,5.25-2.25,4.25-3.25-5.75,1.5-7.25,2.25-5,.25-7.25-1-5.5-.5-7.25-1-3.25.25-5,.5-3.5,1.25-5.75.25-4.25-1.25-6-3.25-3.75-1-5.25-2.5-3.25,1.75-1.75,2,4,4,2.75,5.25-1.5,4,.75,4,2.25,2,3.75,1.5,1.5-1.25,3.25-.75,2.75-.5,6-2.25,4.5,0.25,4.5,1.75a4.3,4.3,0,0,1-3.25,4.5c-2.75.75-4,3.25-6.75,3s-3.5,1.25-5.75,1-2.75,1-4.75,2.5-6.75-1-7.5-2.5-5.25,0-7.75-.5-6,.25-8.5-2.5-8.5-4.5-11.75-8-7.75-7-15.5-9.75-21.5-20.75-23-23.25-2.75.25-3.75-1-0.5-1-2.5-1-1.75-2-2.5-4.75-4.25-3.75-5.5-2.75-3,.25-4.25,1.25-2.75.75-3.75-1-2.25-2.25-2.5-.25-4.25,3.5-5.25,1a3.72,3.72,0,0,0-5.5-2c-1.75,1.25-1-.5-2.25-0.5s-2.25-1.25-1.5-3.75-2.5-1.5-3.5-.75-2.75-1.5-3.75-3.25-6-1.75-8.75-6-15.5-10-15.5-12-1-1.5-3.25-2.75-2-2.75-2-5a29.51,29.51,0,0,0-2.25-8.5c-0.5-.75-6.5-0.75-7.75-1.5s-2,4-3.75,4-3.25,0-3,2.25-0.25,2.25-3,1.75-4.75,0-6.25,1.25-4,1.5-5.75,1.5-5.5,1.5-7,2-6.25.25-8,0-3.5,1.25-5,.25-4.25.25-5.75-1-4.75,1.5-4.75,0-2.75-1.5-3.75-2.5a5.18,5.18,0,0,0-2.5-1.25s-0.5,2.75-1.5,2.25a6,6,0,0,0-3.75-1c-1.5.25-1.75-1-1.5-2s-2-.75-2-0.75a26.91,26.91,0,0,1-2-2.75,5.37,5.37,0,0,1-.75-2.5s-1.25,2.5-2.75,3a11.77,11.77,0,0,1-4,1c-1.5,0-1.25-2.25-3.25-3.75s-3.25-3-4.25-1.75-2.25.5-1.75-.75-6-5-7.5-4-2.25-1.5-2.25-4.25-0.75-3-2-4.5-4.25,1.75-5.25.25-3,1.25-6.25-2.75-14.25-12-17.5-14-5.25-4.5-7.25-4.75-2.5-2.25-2.75-5.25-0.25-3.5-2.5-3-7-1-10-1.25-6.5-3.25-10.25-7.5-14-8.25-16.25-9.25-4.25-5.25-5.25-7.25,0.75-1.5,3.5-1.5,2.75,2.75,6,3.75,6.5,4.5,8.5,4.5-7.75-8.5-9.75-11.25-2.75-7.75-3.5-6.75a2,2,0,0,1-3.25-.5c-0.75-1.25-3-3-3.5-5a6.41,6.41,0,0,0-3-4.5c-1.75-1-3.25-3-2.5-4.75a2.72,2.72,0,0,1,1-1.18,12.26,12.26,0,0,1,6.95-.39c4.54,0.84,4.22,3.06,5.28,5.17s4.12,2.22,4.54,1.16-0.53-.63-1.48-1.48-0.84-.84-0.63-2.32,0.84-1.16,2.11-2.32,0.11-2.22.53-3.27,1.37-2.22,1.9-2.11,0,2.53,1.16,1.79a30.82,30.82,0,0,0,4.22-3.8c1.58-1.58,2.43-1.79,2.74-2.64s0.42-1.58,1.79-1.58,2.74-1.58,3-2.74-1.06-1.16-2.11,0-1.48.95-3.06,1.27-2.11,1.79-2.64,3.17a6.56,6.56,0,0,1-1.9,2.64c-0.74.74-.74,0.21,0-0.74a4,4,0,0,0,1.16-2.43,4.81,4.81,0,0,1,2.43-3.48c1.58-1.06,2.53-.32,3.17-0.95s1.16-.84,2-1.69,1.58-.11,2.43.21,1.69-1.16,1.69-1.16l2.53,1.27s-1.16,2.64-1.79,2.43-1.79-1.16-2.22,0,1.69,2.11,3.06,1.69,1.58-2.43,2.11-3.27a2.06,2.06,0,0,1,2.32-1.16c1.16,0.21,1.27.63,2.74,0s3-.84,3.8-1.79a21.65,21.65,0,0,1,2.11-2.43c1.06-.95,1.69-0.32.63,0.42a2.31,2.31,0,0,0-1.27,1.58,2.07,2.07,0,0,1-1.79,1.48c-1.27.32-2,1.58-3.06,2.11a22.09,22.09,0,0,1-3.59.84c-1.06.32-2,2.53-3.06,3s-0.84,1.48-.21,1.58a4.18,4.18,0,0,0,2.53-.53c1.06-.53,1.58-0.42,1.06,0a7.43,7.43,0,0,1-3.06,1.16c-1.06.11-1.69,0.53-2,0s-0.74-1.9-2-1.37,0.63,2.53.21,2.85-1.58-2.53-2.74-1.48,0.95,2.32.95,2.32c-0.95.53-2.32,0-3.38-.95s-2.22-.11-3.27.74-2.64,1.79-1.58,2.53,2-.42,3.38-1.37,1.79,0.95,3,1.48,2.43-.32,3.91-0.95,2-1.58,4.64-2.22a7.56,7.56,0,0,0,4.86-3.38c0.53-1.06,1.69-.95,2.53-2s1.58,0.21,1.37.74-1.06-.11-1.9.42,0.21,1.37-.32,1.9-0.95-.63-1.79,0-0.32,1.79-.84,2-0.74-.53-1.58-0.11-1.06,1.69-1.9,1.58-1.58-.42-2.22.42,0.42,1.9,1.58,1.9,0,0.53-.63.53,4.85,1.58,5.49,1.79,2-3.59,2.64-4.86a23.69,23.69,0,0,1,3.38-4.64c1.58-1.79.42-1.48-.42-0.74s0.21-.63.95-1.58a47,47,0,0,0,2.74-5.07c0.53-1.06,1.37-2.43,1.37-2.43s0.42,0.21.95-.84,4.86-4.43,5.49-5-0.21-2.32-.42-3.17-0.84-2.53-.84-2.53a3.26,3.26,0,0,0-.21,1.37c0.11,0.53-.74.74-1.16,0.95a9.34,9.34,0,0,1-2.74.84c-0.74,0-1.58,1.06-2.11,1.37s-0.42.95-.63,1.79a3.6,3.6,0,0,1-1.69,2.43c-0.95.42-3.59,1.58-5.17,1.58s-3,.63-4.64.84-4.75-.84-6.65-1.58-8.34-2.85-11.29-4.75-13.83-7.39-14.56-8.23a29.27,29.27,0,0,1-4-5c-1.27-2.22-3.48-6.23-3.91-7.92s0.42-3.48.84-4.54,0.74-.21,1.9.21,1.58,0.84,1.79-.21-1.48-3.48-2.43-4.85S954,573.2,953.56,572s-5.91-4.22-7.07-4.75-1.69-.63-2.22,0-1,.37-2.12-0.29a14.72,14.72,0,0,1-2-2.07c-2.25-2.75-9.5-7.75-11.75-7.75s-10.5-6.25-14.25-10-5.25-4-8-3.75-5.5-3.75-9.25-6a41.77,41.77,0,0,1-11-11c-1.75-3-7.25-6-10.75-8.75s-10.5-8-13-7.5-4.25-1-5.25-4.5-3-5-4.75-4.75-6-.25-8.75-5.5-12.25-12.75-16.25-23.25-16-20.5-17.25-23,0.75-3.25,2.25-4-28-28.25-34.5-32.75-7.25-7.25-8-12-27-23.25-69.75-62-50.5-46-52.5-50.5-7.5-3-10.75-5.75-18.5-18.25-21-18-12.25-8.25-15-13.25-30.25-20-33.25-22.5-7.5-3-10.5-5.25-12.5-5-13.5-6.25-2.75.75-3.25,1.5,4,9.25,4.5,11.25-1,5.5-1.5,8.25,1.5,3.5,3.25,5,3.53,0.73,4.5,2.5c1.5,2.75,0,6-2.25,10.5s-2.75,12.5-3.25,14.5,18,3.5,21,5.75,4.5,3.5,9.25,2.75,5.75,0.75,10.75.5,5.5-1.5,6.5-4.25,1.75-2,2-4,0.75-5.25,3.25-3.5,3.25,0.75,7.25,3.5,21.5,19.25,26.25,25.25,9,11.75,13.25,16.75a110.86,110.86,0,0,0,10.25,10.75c3.25,3,3.75,3.75,3.75,5.75s-0.25,6,4.25,5.25,2,1.5,7.5,3.5,7.75,11.75,12,16a49.34,49.34,0,0,0,12.25,9.25c4.25,2.25,5.25,7,7.75,10.25s3,5.25,1.75,6.75a5.6,5.6,0,0,0,0,7.25c2.25,2.75,3.5,5.75,6.75,7.5s10,5.75,12.75,11.25,8.25,7,11,14.5,1.75,10-.25,13,1.25,4.59,3.25,14,3.25,25.25,1.5,31.75-3.75,22.25-4.75,24.25,1.25,5-.25,5.5,1.25,9.5,1.75,12,1.5,5.75-.75,6-2,1.25.25,2.25,4.25,5.25,5.75,8.25,0.75,3.75-.75,5,1.5,3.25,4.5,1,4,2.5,9.75,7.25,7.75,12.75,9.25,16.25,1.75,3,1,6.25,2.25,3.75,5.5,5.25,2.25,3.75,5.25,4.5,2.25,1.75,1.75,5.75,3.5,5.75,7.5,6.75,2.25,1.75,4.5,4.5,2.75,1,5,1.75,0.5-1.5,2.75-3.75a24.23,24.23,0,0,1,4.5-4c3-2.25,1.25-1.5,4-1.75s5,1,4.75,2-3,3.5-4.25,5-1,4-.25,5.75,3.25,0,6.25-1,2-1.25,2-4,0.75-2.25,3.25-4.25,2.75-.5,5.75-1.25,1.75-.25,3.25,1,2.25,1.5,3.5.5,3.5,0,6.5.25,5,0.25,6.25,1.25,1.5-1.75,2.75-3.5,2-2,2.25-3.75-0.25-1.5-1.5-.5-4.75,1.25-8.25,1.5-4.25-.5-7.25-0.75-2.25,0,1.5-.75,5.5-2.25,8.25-2.25,1-2.25,2-3.25,1-3,.75-7-0.25-7.75-.25-9,6.5-5,9-6.25,8.5-.75,9.75-2.5,2-3.25,3.25-4.75,0.5-2.5,1.5-2.5,2.5,5.75,3.5,8.75,2.5,2.5,3.5,2.25,1.5,5,2.25,5.25,4.25,4,5.25,4.5,0.75,3.5,0,4.75-0.5,2.5,1,2.5,3,2.25,4.25,3a3.92,3.92,0,0,1,1.5,4.25,45.07,45.07,0,0,1-2,5.25,5.1,5.1,0,0,0,.75,5.25c1.25,1.5,1,2.5.5,5s1.5,4.5,3,4.5,2.25,2.25,1.25,3.75-1,3.75.5,3.5,2.5,1,4,.5,3.25-2,5.5-4a9,9,0,0,1,4.5-2.25,2.67,2.67,0,0,0-3.25,0,2.47,2.47,0,0,1-3,.25c-0.75,0-3-1.75-4.25-3.5s-3.25-2.5-3.25-4.25,0.5-3.5-.75-4.25-3.75-1.75-3.75-3.25a17.68,17.68,0,0,1,2-7.25c1.25-2-3.25-5.5-4.5-7.25s-0.25-2.5,2-2.5,0.25-2.5-1-2.25-2.25.25-1-1.75-2.25-.5-2.25-0.5a10.61,10.61,0,0,0-3-2.75,9.4,9.4,0,0,1-3.75-4.5c-1-2,1.75-3.5,3.25-5.75s2.25-.75,4.25-1,2.75,2,1.75,4.5,0.5,4.5,1.75,3.5,0.75-4.5,2-6,2.75,2.75,1.25,3.5-1.25,1.25.25,2.75,1.75,1,4.5.5,2.25-1.5,3.5-3.25,6,4,7.25,5.25,0.75,4.25,0,5.75-1.75,0-1.5-1.75-1.25-1-2.75-1.75-1.75,3.5-2.5,2.25-0.5-1.5-2.75-2.25,1,3.25,3.75,4.75,4.5,3.75,3.5,7.25-0.75,5-3.25,6.75,0.25,3.25,2.5,3.5,4,3,3.5,4.25-1.75.25-3-1.5-3.75-1.25-5.5-2.75-2.5-2-4,0,2.25,7.5,3.25,6.75,0-1.5-.75-3.75,2.25,0.25,4-.25,2.25,2.25-.5,2.25-0.5,2.75,1.75,2,3.25-.25,3,1.75,1,2,2-.25,1-3.25,3.5-1.75,1.75,3,1.75,5.5,1.5,0.25,4,.75,3.25,3,3,4.75-1,5.25-2.5,5.75,2.5,2.75,4,2.5-0.25,3.75-2.25,4-2.75-.75-3.75-3.75-2.5-.5-1.75,1,0.25,3.5,2.5,4,1.5,2-1,1.75-3,1-4.5,2-3.75-3.5-5.75-5.5-2.5.5-3.75-1a5,5,0,0,0-2.75-1.75,16.56,16.56,0,0,1-6.5.5,21.51,21.51,0,0,0-8,0c-3.5.5-3.25,3.5-5.25,6s-0.25,5,.75,7.75,3,2.75,6.25.25,4-1.5,4.5-4.25,1.5-2.25,3.75-3.5,3.25-2.25,4-1.25a16.74,16.74,0,0,0,3,2.5s2-1.5,2.75,0-0.25,4.25-1.75,6.25,5.25,0.25,8-.75,4-1,3.75-4,2.5,1.75,4,.75,2.25-.75,3.5,2.25,4.5,4.25,3.5,4.75-5.75,3.25-8.5,3.25-2.25,3.75-4.25,4.5-0.5,2,.75,4.75,0.75,2.75-2.25,6-3.25,5.25-6.5,6.25-2.5,5.25-5.75,7.5-5.25,7.25-8,9.25,0.75,8.25,2.25,12-1.25,4.75-2.75,7.5,1,6.25,1.75,9-0.5,3.25,1.25,4.75,1.25,4.25,3.5,5.75,0.25,3,2.5,3.25,1.75,1.5,4.5-.75,3.75,0.75,5.5,3a16.58,16.58,0,0,1,3.75,7c1.25,4,1.75,5.75,4,8s5.25,0.5,7.5.25,4.5,4.5,6.25,7,2.25,2,5-1,7.75,2.25,11.5-.75,10.75-.75,12.25-3.5,2-6.5,2.5-10.75,2.75-6.25,3-9.5a41.14,41.14,0,0,1,1-7.75c0.75-3.25,2.75-1.75,1.25-4.75s-0.5-2.5-.5-6-0.5-5,1.5-3.5,4.5,2.75,3.5,6.25a30.08,30.08,0,0,0-1.5,11c0.25,4.5-.75,11.25-1.5,15.25s-2,5.25-3.5,8.5-2.5,4.25-1.25,8,1.75,4.75-.75,4-2.5,2-2,3.5-1.25,3.75.75,2.25,1.75-.75,4-0.5,2.75,2.25,3.5,4.25-0.5,2.5,1.5,4a9,9,0,0,0,7,1.75c2.25-.5.75,4,3.25,2s3.75-1.5,5-4,3-3.75,5-4,3.5,3.75,3.75,2.25a1.94,1.94,0,0,1,3-1.5c1.5,0.75,2,4.5,1,7.5s-1.25,6.25-3.5,6.75-2.75,2.25.75,1.75,3,1.25,6.5,4,3,1.25,5.75-1,2.25-.75,6.5-1.5,3.25-1.75,6-1.75,3-2,4.5-5,2.25-1.75,5.25-4,0.75-1.75-.25-3.25,2-2.25,3.25-4,2,0.75,3,3.25,2.5,4.25.5,4.5,0.75,1.25,1.25,3.25-0.5,2.75-3,4.5-1.5,4.75.5,4.75,2,1.25,4.75.75,2.5-1.75.5-3.5-0.25-2.25,2-3.75,0-1.25-.5-3.75,1.25,0,3.75,1.5,1.25,3,2.75,5.5,5.25,1.75,9,.25,5.75-1.5,6.75-2.75-0.5-4.5-.5-7.5-3.75-2.25-5.25-3.75-6.5-3.75-9.25-4.75-2.25-2.75-4.25-2.5-3,4.25-3.75,6.25-1.75,2.5-2.5,1.75-1.5-2-.75-4.25-0.25-3.75-.25-6.75-2-3.75.5-4.25,4.75,0.25,6-1.5,1.75-1.75,2.75.25,1.75,5.5,2.5,8.75,10.75,5,14,5.75,4.75,1.75,7.5,3.25,3.75,6,3.75,6,10,0.5,13,.5,4.5,0.25,7-1.5,4-3.25,6.75-5.25,2.75,0.75,5.5,1,6.75,4.25,9.75,7.25,3.5,0.25,6.5,1a11.06,11.06,0,0,0,8.25-1.25c1.75-1.25-.5-1.75.25-3.75s3.25-4,5-5.25,7,0.5,7.5,2.75-0.75,3.25-2.75,5.25-3,6.5-5.25,8-2.25,3.75-4.5,6,0.5,4.75,2.25,7.75,2.25,3,5.25,4,3,1,6,.25,4.25,3.25,6.75,2.25,1.25-1,6,.5,6.5,1.25,10,2,3.5-.75,1-1.5-4.25-2.25-.5-1.75,11,0,13.25,0,1.75,0.25,3.5-2,0.5-3.75-1-5.5a3.85,3.85,0,0,1-.5-4.75c0.75-1.25.25-2.25,3.25-2.5s2.5,3,4,6.5,4.25,3.75,7.25,10.25,5.5,8.75,6.75,13,1,2,1,5.5,0,4.25,1.5,6.5,0.5,5,.75,9,1.25,7.25,1.25,11.25,0,6.5-1.5,8.75-3.25,2.5-6.75,4.5,0.25,2.75.5,6-0.5,2.75-2,5.75-2,4.5-1,6.5,1,3.5-1,4.5-2.25.75-2-1-1.5.25-3.25,1.25-4,1-4-.5-4.25,4.75-6.75,6-6,1.5-4.5,2.75,0,4.25-.25,6.75-3,3.25-5.75,3-1.25-1.5.5-2.75-2.25-1.75-.5-3,3-1.75,2-4.25a9.85,9.85,0,0,1-.75-6.5c0.5-2.5,4.75-5.25,6.75-7s5.5-2,8-1.5,2-1,2.75-2.5,0.25-4-.25-5.75-6.25-1.25-9.75-1.25-6.5-4.75-7.25-4.5-5.25,2.25-15,10.75-11.75,14-11.75,14,4.75,7.5,3.25,8.25-7.25-.25-9.5.75-6.25,5.75-8.75,9.25-4.75,14.75-4.75,19.25-5.5,18.5-6,22.75-3.5,6.75-5.25,9-0.25,7.25,1.5,11-1,3.25-2.75,8.25-3.25,8.75-5.5,11a42.79,42.79,0,0,1-10,7.25,10.15,10.15,0,0,1-8.5.25c-2.5-1-9-3-12.25-4.25s-8.25-.5-10.75.5-2,3.25.25,4.75,9.75,3.75,12.25,4.75,2,4,3.25,7.5,4.25,0.75,7-2.25,11.25-1.25,13.75-2.25,4,0.5,4,2.25-4,5.25-6,8-2.25,2.25-2.25,4.75,1.25,2.5,3.75.75,5.75-3,9.25-4.5,2.5-1,5-3.5,1-1,2-4.25,0.25-3,3.75-4,4,1.5,7.5.75,3.25-2.5,5-6a19.3,19.3,0,0,1,4.75-6.75c2.5-2.5,1.5-3.75,2-7.25s0-7.25.25-10,3.25-4.5,5-5.75,2-1.5,1.75-3.75-2.5-3-5-3-3.75-.25-5-1.25,1.75-3.75,3.25-2.25,2.25-1,5.25-3.5,3.25-3.75,3.75-5.5,0-9-2-12.75a10.78,10.78,0,0,1-1-8.5c0.5-2.25-2.25-3.25-4.5-3.75s-1.75-1.75-1-3,1.5-2.5,4.75-1.25,4.5,3.5,5.75,2.75,2.25-.75,5.25-0.75,1.5,2.5,3.25,4.75,2.5,1.25,3.25-2,9.25-8.75,11-10.75,4-2,7.5-1,4.5,1.5,4.25,3.75-3.75,3.75-6,6-1.75,2.75-2,5a21.92,21.92,0,0,0,0,7c0.5,2.25-1.75,2.75-2.75,4.75a8,8,0,0,0-.25,6.75c1,2.25-2,2.5-2.5,4.5s-3,1-3.25-1.5-2.75-2.5-2.75-4.5-0.5-5.5-1.75-7a3.64,3.64,0,0,0-3.75-1.25c-0.75.25-3,3.5-5.25,6.25s-0.5,3,.25,6.5,2.25,4.5,3.5,7.25-1.75,5-4.25,9-4.75,13-6.75,20-2.75,11.5-4.5,15.75-0.25,10,.25,12.25,3.5,2.5,5.75,3.75-1,6.25-.25,18.25,17.25,40.5,19,43.5,1,3.75.75,7-0.25,5.5-2.5,6.75a10.89,10.89,0,0,1-7,1.75,35.7,35.7,0,0,1-7-1.25c-1.75-.5-3.75-3.75-4.25-6s-1.25-3.25,1-5.5,0.25-4-.75-5-1.5-.75-3.25.25-3.75-2.5-3.75-4.5-2.25-3-4-2.5-2.75,3.5-5.5,5.25-4-2.5-6.25-2.75-2.25-4-2-6.75-9.5-11-12.25-12.75-2-1.75.25-3.5,6,0.75,6.75-1.25a7.37,7.37,0,0,1,3-3.25s4.75,4.5,7.25,5,4,2.75,6.75,2.5,4.75-3.75,6-5.75-9.5-6-11-7.25,3.25-4.5,4.5-6.5a20.4,20.4,0,0,0,2.75-7.5c0.5-3,.5-5.25-0.75-5.25s-4.75,2.25-8,1.25a9.52,9.52,0,0,1-5.75-4.25c-1.5-2-3.75,1.5-4.75,5s-1.25,6.25-5.25,7.5-6.75,2.75-9.75,2.25-1.5-2-4-2-3.5-.5-6.75-1.25a41.51,41.51,0,0,1-9.25-3.75c-1.75-1-1,1.5-4.75,1.5s-3.75-3.25-3.5-5.25-0.5-2.75-2-4.5-0.5,4.25.5,8,3,4.5,5.5,4.5-0.5,2,2.75.75,5,0.25,5,.25c0.75,0.75.5,2-2,4s-1.25,4-1.25,6-6.25-1-9-1-0.75,4,2,5.75a15,15,0,0,1,5.5,6c0.75,1.75-2.75,3.25-5.5,3s-5.75-2-5.25-5-9-5-12-6.25-6.5-2.5-8.75-1.25-3.5,5-5.75,10.5-2,2.5-.25,5.75,2.75,2.25,6.5,3.25,3.5-2,6.75-3.5,2.75-1.5,6-.25,3.75,2.75,2.25,6.25,7.5,4.75,13,5.75,6,2,4.75,4.25a59.24,59.24,0,0,1-5.25,7.5c-2,2.5-2,5.5-1.75,10s1,5.25,2,8.5-0.75,12-1.25,16,1,3.75,4.25,6.25,5.5,8,7.5,11.25,11.75,2,17,.75,4.75,1.25,9.25-.5,0.75-2,1-4.5,8-1.5,11.5-3,5.5-.25,8.75-0.25,8.5,1,11,1.25a18,18,0,0,1,6.75,1.75c2.75,1.25,2,4.5,5.25,3.75s0,0,3.5,1.25,1,2.75,3.25,3,1.25,1.5,1.25,4.5,2.75,1,4.25-2,0.75-1.5,3.5-1,2.25,1.75,3.75,4.5,2,2.25-1,4.5,1,2.75,2,4,0,3.25,2,3.75,1.75,1.75,3.25,3.75,3,0.25,5-.75,1.5,1.75,1.25,3.75,0.5,3.25,2,6.25,3.25,6.5,4.75,10.25,2,3.75,2.25,7.75,0.75,3.25,2.75,4.75,3.5,5,4.25,7.75,3.75,1,6.75,3.75,3.75,6.5,3.5,10.5,4.75,7,3.75,8-3,.5-4.25-1.75-2.25-4-4.25-4-4.75-4.5-4-8-3-6.25-5.75-8.25-4.25-6.25-6.25-8.75-1.75-4-1.5-6.5-1-4.75-.75-6.5-2-4.5-3.75-7.25-4.25-5-5.5-7.5-4-3-5.75-4-6.75-6.25-9.25-7.75a11.16,11.16,0,0,0-7.75-1.5c-2.25.5-4.25,1-3.75-1s2.5-.5,3.5-1.75,0-4-.5-6.25-3.75-.25-7.75,1.75,1.75,4.25-.5,5.75-8.5-2-12.75-2.5-6.5.5-11.5-.25-6.5.5-12.25,1.25-3.75,1.25-6.25,2.75-4.25,1.75-7.5,1.75-1.75-3.75-4.75-5.25-10.75-.75-13.5-1.25-2.75-.5-2.5,4.5-3,9-3,12.5-4.5,9-8.75,13.25-6,4.75-6.25,6.5a19,19,0,0,1-5.25,10.5c-4,4-7.5,4-12.75,4s-6,4-8.75,3.25-2.25-3.75-3.5-3.75-8.75,3-11.5,4.75,0,6,5,6.25,6.5,1.25,8.75-1.5,4.75-1.25,6.75-1,3,2,6.5,4.75a38.56,38.56,0,0,1,9.25,11.75c2,4,10.5,8.5,15.75,11.5s8.25,4.25,7.25,7.75-3.75,6-5.75,10.75-1.5,6-.25,7.75,2.5,0,3-3.75,4-8.75,4-8.75,6.5,9.5,7.75,12.25,1.75,5.25,0,6-2.5,2-4,2.5-4.5,1.5-3-.75-1.75-.5-3.75.5-2.25,4.75-3.5,7.75,0.25,4.75,1.75,7.25,1.25,3,5,4,4.5-1.25,5.25-4.5,4.25-8.25,5.25-9.75,2.25,7,3.5,10.75,1.5,7.25-1,11.25,1,3.25-2,6.75-10,7.75-15.75,9a19.46,19.46,0,0,1-9.75,0c-1.75-.25-4,7.75-5.25,10.75s-3,7.5-5,9.75-2.25,3.75-2.75,6.75-1,5.5-2.75,7.5-1.75,4.5-1.75,6.5-2.75,1.75-4.75,4.25-3.5,7.25-4.5,9.25a8.41,8.41,0,0,1-4.75,4.5,6.86,6.86,0,0,1-6-1.25c-1.25-1-6,4.5-8.25,5.75s-6.5,3.25-10.25,3.25-2.75-.5-4.75,1.5-2.75,2-1.75,4.25,4.75,9.75,7,14,1.75,3.5,5.5,4.75,23.5,5.25,27.75,6.75,2.5-1.5,3.25-4,2-.75,5,0,3.5,1.25,4.75-2-0.5-2.5-3.5-3-4.25-.75-6,0.5-3.75-1.25-8-3.5-3.25-2-8-1-5-1.5-6.75-2.75,2.5-3.25,6-7.75,3.75-4.75,6-5.5,4.75,2.5,9.25,6.25,6.5,1.75,10,1.25,4,3,4.5,7.5-1.75,10.25-1.5,16.25-0.5,5.5,1.75,8.75,1.75,4.25,2.75,7.25,1.75,3,4,1,2.75-2,2.5-3.75a21.65,21.65,0,0,1-.25-2.75s3.25,1,3.25,3.25-3.75,4.75-7.5,7.25-4.25,3.75-8,4.5-7.75,6.75-9.75,9-1.5,4-2.5,7.5,1,2.5,3.75,5.25,3.75,1.25,8,2,1-1.5,1.75-2.75,4-1.75,6-.75,2.25,1,5.75,1.25,4.25-.75,6.5,1.75,4,1.5,4,.5-1-2.5-.25-4.25,3.25,1,6.5,2.5,3.5,0.25,5,2,0.5,3-1.25,2.25-2.75.75-1.5,2.75,4,2.5,3.5,5.25-2,3.5-3.75,4.5-1.75,2.25-3.25,3.5-2.5,1.25-3.25,3-1.75,3-4.5,5-1.75,2.75-.5,4-3.5,4-8,6-11,6.25-14,7-3,2-3.5-1-1-3.25-2.5-2.5-3,2.75-4,1.25-2.75-1.25-2.75.25-2,1-3.5,1.75,2,4,2.25,6.5-4.25,5-7,7.5-2.25,3-4.5,6-6,3.5-9,3-3.25,2.5-4.25,4.25-3-.5-4.75-1.5-5.5.25-7.25,0.75-1.75,1.75-1.5,3.75,2,1.5,3.25.25,2-.5,4.25,1.25,5.75,0.5,8.75.75,1.5,1.75-1.5,5-4.25,6-7.25,7.75-1,3.5-2,5.75-1.5,2-3.75,2.25-2.75-1.5-2.75-3.5-4.25,4.75-6.25,7.25-4.5,2.75-7,3.25-3-1-4.5.25-3,2.5-5.5,1.75-14,4.5-17.75,7.25-4.75,6-6.5,9,0.5,2.75,2.75,2.25,2.25,0,3.25-1.75,2.75,0.25,2.75,3.5,0,3.5-3.25,3.5a48.93,48.93,0,0,0-12.25,1.5c-5,1.25-9.5,7-13.5,12.5s-21.75,17.5-24.75,20.25-2.75,3.25-7,3.75-5.25,3.5-8.75,4.25-5.25.75-8,2.75-4,1.75-3.75-.25-10,5.25-11.25,6.5,0.75,2,4.5,2,5.25,0.75,5,2.75-3,2-7.5,4.75-8.5,2-11.5,1.75-2.5,1.75-3.5,4.25,1.75,3.75,4.5,4.75a30.09,30.09,0,0,0,7.5,2.25c4.25,0.75,4.25,4,2.5,7.5s-6.25,9-10.25,11.25-6.75,5.25-10,5.25-13.25,6.25-18,7.5a109.34,109.34,0,0,1-18.25,2.25c-3,0-7.5-.75-7.5-2.75s2-3.75,2-3.75,3.25,2.75,5,2.25,2.25-1,2-2.75,1-3.25,1.75-5.75-3.5-3.75-5-5.5-0.75-4.25-2-5.75-3-2.25-4.5-4-2.5-1.25-3.75-.5,2.25,6.75,1.75,11.25,0,5.25.75,8.5-2.5,7.25-3.5,9.75-3.25,5.5-4.75,7.75,2,6,2.25,9,1,3.25,3,3a7.48,7.48,0,0,1,5.75,1.75c2,1.5,2.25,2.75,7,1.5s4.25,1,6.25,2.5,3.75,1.25,10,2,22.75,7.5,25.5,10,4.25,2.5,5.75.5,2.5,1.5,5,1-0.25-1.75.5-3,0-2,1.5-4.25,1.75-2.75,4.25-1.5,4.25,1.5,8.5.75,4.5,1.75,10,3.5,5.5,0.5,8.75,2,5.75,4,7,3.25-0.5-1.75-1-4.5,1.5,0.5,5,1,6.75,2.75,9.25,4.25,2.25,3,.25,3.75a2.84,2.84,0,0,0-2,2.5s5.5,2.5,10.5,1a42.76,42.76,0,0,1,15.75-1.5c4.75,0.5,4.75.5,8.75,2.75s5.5,3.25,7.25,2.75,1-1.75,2-3.5,0.25-2.5,3.75-1.25,3.25,2.25,8.75,6.25,5.5,8,6.5,14.75,1.5,6.75,3.5,10.5,2.5,8,0,10.25-1.75,5.75-2,10.5-0.75,6.5,1,7.25,3.5,0.25,4.25-2.5a58.48,58.48,0,0,1,2.25-6.25s6.75,10.5,8,13.25,2,3-.25,6.5-1.75,6.75-4.5,9.25-4-5.25-5.5-8.25-3.75-.5-5.5,2,4.25,11.25,3,13.75-2.25,6-7,6-3,1.25-1.5,3.5,2.25,1,6.75-.25,4.5,1,5.25,4.5,2.5,3.5,5.75,1.75,3.25,1.5,8,4.5,3.5,8,9,11.25,6,2.75,9.75,8,13.75,17,16.75,26.75a110,110,0,0,0,15,30.25c6.75,9.5,16.25,27.25,21,29.25s5.75,2,4,4.75,0.5,3.25,5.25.75,5.25,0.75,8.25-2.75,4.75-2.75,8.5-5.25,6.5-5.25,10.5-7.75,8.5-4.5,10.25-6.5-1.75-4.5-2.75-8.5-3.25-13.75-2.75-17.75,0.75-5,1-9.5,1.25-7.25,3.25-9.75-0.75-9,0-15.25,1.75-17.5,3.75-19.25,1.75-6.75,2.25-14.5-3.25-14.75-3-18.75,1.25-5.25.25-7.25-1.75-6-1.5-11.75,0.5-6.5-1.5-10.25-0.75-6-3.5-14-5-14.75-5.25-21-2.25-8.5-1-13.75,0.25-13,1.75-20-0.25-11-1.75-15.75-3-6.5-2-17.75-0.75-15-3-19.25-3.25-6.25-3.25-11.5a102.52,102.52,0,0,0-2-17c-0.75-3.5-1.25-5.25.75-7.5s0-6,1.25-13,9-21.75,12.75-26,0.5-6.25,3.75-12,4.75-9.5,4.75-14.25,1.5-11.25,2.5-15.75-0.25-10.5,1.75-13.5-0.25-8.5,0-14a32,32,0,0,0-4-16.75c-2.75-4.5-2.75-6.75-2.75-13.25s0.5-13.25-.5-17-0.75-11.25.75-14.75,3.5-3,7-1.75,4.25-1,4.25-1-3,0-3.75-1.75,0-1.75,1.75-5-1-4.25.25-5a3.32,3.32,0,0,0,2-2.75c0.25-1.5.75-4,.75-4a4.81,4.81,0,0,1-4.5-1.25c-2.25-2-3.25-11.25-5-17s0-13.25,2-19.25,1.25-13.5,2.5-14.75,3.5-1.5,4-3.25-1-6-3-6-1.75-2.25-1.75-4.75,1-4.25,4-6,4.25-5,7-8.75,1-3.75,2.5-11.5,7.25-10.5,9.25-12.5,3.75-3,4.5-5-1.75-2-2-4.5,0.75-4.75,4-8,4.25-7.25,7-10.75,3-3,7.5-6.25,20.25-18.5,29.75-31.5,23.5-29.5,27.25-31.75,14.25-5.25,17-6.75,6,0.5,11,1,8,0,8.5-1.5-2.25-2.5-3.5-2.5-6-2-6.5-3.5-2.75-2.5.5-4.5,8.5-3.5,12.75-4.75,7-.25,10.5,1.5,4.25,0.5,7.5-1.75,21.25-10,25-11.5a19.79,19.79,0,0,1,9.5-1.75c3,0.25,2.5,3.25,3.75,6.75s2.25,5.75,5.25,5.75,2.25,2.75.75,5.25-0.75,3.5,2,1.75,6.75-2.5,9.5-5.25a10.26,10.26,0,0,1,9-3.25c3,0.5,5.75,0,7.75-1.75s3.5,0.5,4.75.5,2,1,0,1.75-8.75,3.25-10.75,4.25-9.5,5.5-13,7.25-3,3-4,5.75-2.25,4.75-4.5,5.75-6.25,2-8,1.25a3.47,3.47,0,0,0-4.5,1.75c-1,1.75.25,3.75,0.75,5s-1.5,1.75-3.25,2.25-2.25-3.5-1.5-5.5-1.25-.75-3-0.5-2.5,1.5-3,3.25-4.5-1-5.5-1.75-1.5-3.5-3.75-2.5-4.25,2.5-3,2.75,2.25,2,6,3.75,4.5,5.5,6.5,5.5,5,4.5,4.25,7-1.5,4.75-.75,6a31.38,31.38,0,0,0,3.75,4,25,25,0,0,0,4.25-4.5c1.75-2.5,3.75-1.25,4.75-3s0.5-2.75,3.5-4.5a20.63,20.63,0,0,1,6.75-3c3.5-1,2.5-2.25,4-5a16.14,16.14,0,0,1,4.25-5.5c2-1.75.75-3-.5-2.75s-2.25-1.75-2-3.75,1.25-3.25,2-5.25,4.75-3.25,8.25-4.25,4.75-1.75,7.5-1.5,6,0.5,8.25-.75,3.25,4,3.25,6,2-3.5,3.5-6.5,7.5-12.75,8.75-15.5,1.75-4.25,3-6.75,1-10.25,1-12.5,1.25-3,2-6.25,3.5-4.75,4.25-7,3.25-3.5,3.75-5S1405.9,1172.42,1404.15,1172.42Z" transform="translate(-0.11 -0.13)"/><path class="a" d="M6.7,258.46c-1.65-1.18-5-5-1.08-5.39s5.75-4.67,10.42-4.31,56.07-5.75,59-7.91,12.58-6.47,20.13-7.19,44.21-15.82,53.2-16.18,30.19-2.52,35.95,0,21.93,4,28.4,1.08,18-10.42,20.49-9,29.83,4.31,32.35,2.52,8.27,2.88,12.58,4.31,47.09,11.86,51.4,11.5,10.42,1.44,14,3.59,30.19,5,35.23,6.47,10.42,0.72,19.05,3.59S414,247,421.87,247.31a82,82,0,0,0,17.61-1.08c5-.72,6.47-2.16,9.71,1.8s14.38,9.35,18.33,8.63,7.55-1.8,11.86-1.44,26.24-8.63,33.79-7.91,11.86-.72,13.3-1.8,6.93-6.59,6.93-6.59l3,0.5s-0.25,7.25,1,7.5,4.25,0.75,4.75-.5,2-3.75,3-2.25,4,1,4.5,3.5-1.5,6.25-2.5,7.25-4.25,3.5-4.25,5.25-1.75,3-1.75,6,1.25,8,5,10,6.75,2.5,11,3,16.25,2.5,24.25,4,17-1.25,20.25-.75,8.75-1.5,8.5.25,0.75,3-.5,4.75-2.75,1.5-3.5.5-2.25,1-3.25,2.25-12.5-1.75-20.75-2-8.5.75-11,2-3.25-.75-7.25,1.5-7,4.25-8.5,6.75-3,.25-6.25,0-16.25,1.75-19.5,1.75-15.75,1-21.25,3.5-11,.75-11.25,2.5a3.94,3.94,0,0,1-3.5,3,19.17,19.17,0,0,0-4.75,1.25c-1.5.5-1.25-3-3-3.5a20.89,20.89,0,0,1-6.75-3.25c-1.75-1.5-14.25-3.25-18.75-2s-11.25.75-12.25-.25-3.5-3.25-5.25-3-3-2-3.5-3.25-4.5-3-7.5-3.25-4.75-.75-4-2.5-5-4-5.5-5.5-4-3.5-5.75-7.75-2.5-4.75-4.25-4.5-3.25-1.25-4.25-2.5-2-3.75-3.75-2a4.54,4.54,0,0,1-5.75.25c-1.25-1,.5-6.25-2.75-6.25s-9-2.5-11.5-5.5-6.75-4.25-9.75-4.25a21.8,21.8,0,0,0-7.75,1.25c-1.75.75-2.75-3-5.25-3.5s-1.75-4.25-4.75-6-5.75-1.5-7,1-1,4.5-1,6.5,2,2.5.75,5.5a9.49,9.49,0,0,1-4.75,5.5c-2.5,1.5-6.75,3.75-8.75,6.25s-1.25,4-4,5.25-3.75,1.5-7.5,1.5-4-3-7.5-3-4.5-1.75-6.5-2.5-8-3.75-7-5.25,0-3.25,1.75-4.25,0-5.75,2.75-5.5,3.25,0.5,6,2,8,2.75,10.5,2.5-1.5-4-.25-4.75,1-6.25-2-6.5-6-1.75-6,0,3,5.75,1.75,7-4.5-2.75-6.5-2.75-5.5-2.5-7.25-1.5-2.25-2.5,0-3.25,0.25-4.25-4.25-3.25-10.5,1.75-11.25.25-11-6.75-8.25-4.25,4.5,6.5,4.5,8,1.25,2.25,2.75,3,2.25,2.5-.25,4.25-4.25-.25-4.5-2.5-1.25-4.75-3.75-5.75a11.88,11.88,0,0,1-5.75-4.75,7.78,7.78,0,0,0-6.5-3.75c-2.75,0-3.25-4-5-2.25s-7.25,0-6.75,2.5-1.25,6.75-3.25,4.75-6.25-4.25-8-5.75-5.25.75-9,.5-6.5-1.75-6.5,0a2.61,2.61,0,0,1-3.25,2.5c-1.75-.25-2.5,2.25-4,1.25s-3.5-9.5-8.5-9.5-11-.75-13.75-2.75-16.25-5.25-22.25-5.25-23.25-.25-35.25,3.25-16.75,3.5-25.5,8-13.25,4.75-19.5,7a57.07,57.07,0,0,1-21.5,3.5c-8.25-.25-40.25,6-44.5,6.25s-5.75,1.25-10.25,3.25-6.75.25-9.75,1S8.49,259.74,6.7,258.46Z" transform="translate(-0.11 -0.13)"/><path class="a" d="M546,1178.81c2.14-2.14,3-4.4,6.78-5.42s3.73-2.71,6.78-.68,4.07,2.37,7.11,2.37,0.34,1.69,5.08,3.73,10.5,4.74,12.87,7.79,7.11,6.78,9.49,7.79,9.15,5.42,10.5,9.15,4.74,5.42,7.11,8.13,3.39,2.71,4.4,5.76a6.76,6.76,0,0,1-2.37,7.45c-2,1.69,3,6.78-1,8.47s-3.73,8.13-4.4,12.2-4.4,5.42-7.45,5.76-1.69,3-5.08,2-6.44,2.71-5.76,7.45-3,3.39-3.39,6.44-4.4,4.4-6.44,4.4-4.74-5.42-1-5.42,3-1.36,3.39-4.07-2.71-4.4-4.4-1.69-4.74,6.1-4.74,13.21-0.68,14.23,0,19-1.69,6.1-3.73,5.76-4.74-12.2-4.07-19,4.4-16.94,5.42-20.67,2-6.44,2.71-9.49-0.34-8.47.34-12.2,3.39-4.07.68-9.82-3.73-7.45-7.11-5.08-5.76-1.36-8.81-6.78-3.73-4.4-5.42-11.18-2.71-10.5-3.73-15.92S544.67,1180.16,546,1178.81Z" transform="translate(-0.11 -0.13)"/><path class="a" d="M560.93,1169.32a1.9,1.9,0,0,0,.34,3.39c1.69,0.68,5.08,0,5.08,0S562.63,1168.64,560.93,1169.32Z" transform="translate(-0.11 -0.13)"/><path class="a" d="M546.36,1275.7c-2.14,0,.34,5.08,3,3.73s4.07-3.73,4.07-1-1.36,4.74.68,6.78,2.37,2.71,0,4.4-1,4.4-2.71,5.76-7.45-.34-5.42,2.37,2,4.4,5.42,2.37,6.78-1.69,8.13-4.74,1.36-4.74,2-8.47,2.37-5.08,1.36-6.78-3.39.68-4.4-.68,2.37-4.07,0-5.08a11.05,11.05,0,0,0-5.08-1C552.12,1273.33,549.41,1275.7,546.36,1275.7Z" transform="translate(-0.11 -0.13)"/><path class="a" d="M545.35,1335.33c-0.44-1.33-1-7.11,1.36-8.13s6.78-5.76,9.49-7.79,3.39,2,5.42-2.37,2.37-6.44,5.42-4.74,4.07,2,6.1,5.08,3.39,2.71.68,4.4-2,3.73-3.39,6.44,0.68,4.07-6.1,4.07-8.47.34-12.2,2.37S546,1337.36,545.35,1335.33Z" transform="translate(-0.11 -0.13)"/><path class="a" d="M567,1308.56c2,0,6.44,0,3.73,1S567,1308.56,567,1308.56Z" transform="translate(-0.11 -0.13)"/><path class="a" d="M572.79,1312c1.73,0,6.1-3.73,7.11-1.36s-1.36,4.74-.68,6.44-3.39,2-4.07-1S571.1,1312,572.79,1312Z" transform="translate(-0.11 -0.13)"/><path class="a" d="M578.55,1320.08c3-.74,3.39-3.39,4.74-1.36s0,2-1,4.07S577.19,1320.42,578.55,1320.08Z" transform="translate(-0.11 -0.13)"/><path class="a" d="M584.31,1325.5c-2.37.59-3.73,1.36-3.73,3.39s-0.34,2,2.71,2,5.76,1,5.42-2A3.67,3.67,0,0,0,584.31,1325.5Z" transform="translate(-0.11 -0.13)"/><path class="a" d="M592.44,1329.57c-0.68,1-3,5.42-5.08,7.45s-5.76,2-8.47,2-1.36,4.07,3,7.11,8.13,4.74,11.52,3,3-6.78,1.36-9.82S592.44,1329.57,592.44,1329.57Z" transform="translate(-0.11 -0.13)"/><path class="a" d="M613.05,1584.32c-1.43-.54.15-1.93,0.59-4.46s1.19-4-1-4.46-2.23-.45-3.27-3.42,0.15-2.38-2.52-3.12-2.23-2.82-3.56-4.16-2.08-2.38.15-4.9a36.49,36.49,0,0,0,4.46-5.94c1.93-3,.45-9.5,1.93-11.29s2.23,0.15,2.08,2.23,0.89,2.23,2.08.59-1-3,1.63-4.75,3.56-5.79,5.79-5.35,1.49,0.15,2.82,2.67,3.27,2.23,1.63,4.9-2.67,3.86-.59,4.31,1.34,0,2.08,2.52-0.3,3.56,1.93,6.09,1.34,6.09,3.27,7.43,1.63,1.19,1.34,4.16-0.3,7.72-.59,9.06-3.12,2.38-5,3.86-4,2.23-4.46,5.2-1.34,4.16-3.12,1.93-2.52-7.13-3.86-7.57S614.24,1584.76,613.05,1584.32Z" transform="translate(-0.11 -0.13)"/><path class="a" d="M609,1581.79c-0.74-1.34-2.08-3-1.93-4.31s-1.49,1.34-.15,2.82S609,1581.79,609,1581.79Z" transform="translate(-0.11 -0.13)"/><path class="a" d="M611.57,1526.84c1.63-1.34,3.56-4,3.86-2.52s2.38,2.38.45,2.82A9.73,9.73,0,0,1,611.57,1526.84Z" transform="translate(-0.11 -0.13)"/><path class="a" d="M907.14,1741.44a5.67,5.67,0,0,1,5.1-2.19c3.16,0.49,6.32-4.13,7.77-1.46s4.86,4.37,1.46,5.1-2.43-.24-6.32-0.73S907.14,1741.44,907.14,1741.44Z" transform="translate(-0.11 -0.13)"/><path class="a" d="M819.92,1667.09c0.49,1.7-1.21,5.35,1.46,6.56s1.46,3.64,4.62,2.67,2.43-1.7,1.94-4.13-2.43-2.43-3.89-3.89S819.92,1667.09,819.92,1667.09Z" transform="translate(-0.11 -0.13)"/><path class="a" d="M987.8,1799.5c0-3.11-1.21,5.59-1.21,5.59A28.81,28.81,0,0,0,987.8,1799.5Z" transform="translate(-0.11 -0.13)"/><polygon class="a" points="1278.45 1266.77 1276.95 1267.9 1276.58 1269.4 1278.83 1270.53 1280.33 1269.03 1278.45 1266.77"/><path class="a" d="M1274.43,1260.89c-1.13,1.88,1.13,4.13,1.13,4.13Z" transform="translate(-0.11 -0.13)"/><path class="a" d="M1418.15,1146.42c0.25-.75-3.5-2.5-1.75-3.75s0.25-2,1.25-3.25-1.25-1.75-.25-4,0.25-1.5.75-4.25-2.75-2.75-1-6.75,1-6.75,3.25-10.25,2.75-5.75.25-7-3.5-1.75-3.25-3.75-3.25-2.5-.5-4.75,4.25-.5,4.25-4.75-0.75-4,.75-6.75,1.25-4.5,2.5-5.5,3-1,1.75,2.25-2,4.5-1.75,8a27.39,27.39,0,0,1-.25,7.75c-0.5,4,1.5,5,.25,7.25s-1,2.75-1.25,5.25a38.19,38.19,0,0,1-1.25,7.5c-1,4-.75,4.5-0.75,9.5s0.25,4.25-1,7-1.25,2.25-1.25,5A20.63,20.63,0,0,1,1418.15,1146.42Z" transform="translate(-0.11 -0.13)"/><path class="a" d="M1408.4,1063.67c-0.25-2.25-2-3-3.5-1.5s-1.75,3.75-2.5,4.75S1408.4,1063.67,1408.4,1063.67Z" transform="translate(-0.11 -0.13)"/><path class="a" d="M1387.15,1068.67c0.25-2.5-.25-4.25-1-4.5s-3-5.25-2.5-1.5-0.5,6.75,1,6.25A4.86,4.86,0,0,1,1387.15,1068.67Z" transform="translate(-0.11 -0.13)"/><path class="a" d="M1399.4,1044.42s1.5-3.5,0-3.5-1.75-2-.5-3.5,1.5-6,1.75-2.5,1.75,6.25,1,7.25A17.51,17.51,0,0,1,1399.4,1044.42Z" transform="translate(-0.11 -0.13)"/><path class="a" d="M1347.15,1067.17a6.62,6.62,0,0,0,5.75-.5c3-1.75,5-3.25,3-4.25s-3.25-2.5-3.5-1-3.25,2.5-3.25-.25-0.75-3-2.5-3.25-5-4.25-6.25-7.5-4.25-10-5.25-9.75-2.5,1-1,2.75,2.25,4,3.25,4.75,2.5,3.5,1.5,3.5-1.25,1.75.5,2.75,1,3,3.25,3.75,2.5,1.25,1.5,2.75a11.24,11.24,0,0,0-1.5,5.25c0,1.25,4-3.5,5.25-2.25S1347.15,1067.17,1347.15,1067.17Z" transform="translate(-0.11 -0.13)"/><path class="a" d="M1339.4,1066.67a5.64,5.64,0,0,0-.75-4c-1.25-2.25-2.75-4.25-3.5-3.5s-3.75,1.25-3.75,1.25,0.25-1.75-2.5-6-3.5-7-1.75-6.5a1.07,1.07,0,0,0,1.5-1.25l-2.5-3a20,20,0,0,0,3.75.75c2.25,0.25,1.75,2,1.75,2a3.59,3.59,0,0,0,.75,4.5c2.25,2,1.25,3,3.25,3.25a5.51,5.51,0,0,1,3.25,1.75,2.53,2.53,0,0,0,.25,3.5,5.77,5.77,0,0,1,1.75,3.75Z" transform="translate(-0.11 -0.13)"/><path class="a" d="M1315.15,968.67c-1,.25-0.75.75-2,3.25s-2,2.25.25,2.25,2-2,2.5-3S1315.15,968.67,1315.15,968.67Z" transform="translate(-0.11 -0.13)"/><path class="a" d="M1318.15,964.42s2.75,2.5,2.75,4-1.5,4-1.75,5.5,0,3.25,1.25,4,2,3,4,3.25a10.49,10.49,0,0,1-4.25-.5,9.54,9.54,0,0,0-4.5-.25,11.44,11.44,0,0,0,1.25-5c0-2.75.5-4,.75-6.25S1318.15,964.42,1318.15,964.42Z" transform="translate(-0.11 -0.13)"/><path class="a" d="M1318.4,961.92a8.83,8.83,0,0,1,1.25-2.75c1.25-2.25,1.75-4,0-3.75s-1.25-3.25,0-2.75,3.25,0.25,3.5,2-0.75,3.75,0,6,2.25,5.25,1,4.5-2.75-2.75-3.75-2.5A2.5,2.5,0,0,1,1318.4,961.92Z" transform="translate(-0.11 -0.13)"/><path class="a" d="M1317.9,982.17a4.18,4.18,0,0,0-1.5,3.5c0,2.5-2,2.75-.5,5s2.25,3.25,2.5,6.75,0.75,7.25.75,8.5,0.25,0,1.75,2.25,2.5,4,2.5,4.75,3-.25,3-0.25-2.75-1-2.25-5,1.75-7,.25-9.5-3.75-2-4.25-6-1.25-5-1-7.25S1317.9,982.17,1317.9,982.17Z" transform="translate(-0.11 -0.13)"/><path class="a" d="M1317.9,1009.17s1.25,3.5,2,6.75,2,3.5,1.75.5a13.16,13.16,0,0,0-1.75-6A2.49,2.49,0,0,0,1317.9,1009.17Z" transform="translate(-0.11 -0.13)"/><path class="a" d="M1324.4,1015.42s1.75,2.25,1,4.25-2,3.25-.75,4.25,2,2.5,1.75,3.25,3.25-1,1.5-2.75-0.75-2-.75-4S1324.4,1015.42,1324.4,1015.42Z" transform="translate(-0.11 -0.13)"/><path class="a" d="M1332.4,1014.17c-1.75,2.25-1,1.25-1,3.75s1.25,3.75,1.75,5.75a15.62,15.62,0,0,0,2.5,5.5c1.25,1.75,2.75,4.5,2.75,4.5s0.5-2.25-1.5-5.75-2.75-3-3.25-7.5A24.93,24.93,0,0,0,1332.4,1014.17Z" transform="translate(-0.11 -0.13)"/><path class="a" d="M1330.15,1035.92s2-1.5,2.75-1S1332.9,1036.92,1330.15,1035.92Z" transform="translate(-0.11 -0.13)"/><path class="a" d="M1413.65,1014.67s3.25-1.75,2.5-3.75-2-2.25-1.75-4.5,0.5-3.5-.75-5.75-1-3.25-2-5.25-2-2.75-.25-5.5,1.75-2.75,1.75-6.5-0.75-4.25-1.5-6.25-1.75-3.5-1.25-6.75,3-3.75,1-5.25-1.25-1.5-1.75-4.25-1-5,.25-6.25-1.5-3-2.25-6.75,1.75-4.75.25-6-2-3.5-4-4.25-1.5-2.5,1-1.25,2.75,2,4.5,0,1-2.5,1-6.25-1-4.25,1.25-5.25,2.25-1.25,2.75-4.25-0.25-3.5,2.25-6.75a93.17,93.17,0,0,0,5.5-8.5s-1,5.5-3,8.5-2,3-2,6,0,2-1.5,7.25-2.25,4.5-2,9.25,0,3.75-.5,9-1,8.5-.25,14-0.5,9,.5,13.75,0.75,8.25,1.25,12.5,0,7.25.25,9.75,4,4.5,3.25,8-1.5,3.75-.25,7,2.25,5.75.75,5.25A41.88,41.88,0,0,0,1413.65,1014.67Z" transform="translate(-0.11 -0.13)"/><path class="a" d="M1393.4,918.17s-0.75-.5,1-2.75-0.75-4,.75-6,1-2.5-2.75-5.75-6.5-3.75-4-6,3.25-4.5,6-6.5,2.25-.5,5.75-3.5,6-3,4.75-5.25-1.25-1.5,1-2.75,3.25-2.25,3.25.25,0.75,3-1.25,5.5-3,3.5-2.75,5.5-1.25,0-2,3.5-3.25,2.5-2.5,6.25,3.75,2.5,2.75,5.75-2,4-2,7.25-0.25,2.5-2.5,4.25S1394.9,917.42,1393.4,918.17Z" transform="translate(-0.11 -0.13)"/><path class="a" d="M1414.9,907.17s0.5-.5,1.25-4a46.89,46.89,0,0,1,3.5-10.5c1.25-2.25.5,0,2.75-3.5s1.25-3.25,1.75-7,1.75-6,3.5-6,2.75,0.5,2.25,3-2,5.75.25,5,2.5,0.75,2.75-1.75,0.5-1.5,1.25-4,0.25-1.5.75-4.25,0.75-2.75-1.25-2.75-0.5-.5-2.25-1.25-1.25-1,0-3.5,1.25-3.25.25-5.25-3.25-3-.5-5.75,2.25-2,4.25-4.25,1.75-2.25,3-3.75,0.25-1.25,4-2.5,4-2.75,1.5-2.25-4.25.25-3-1-1-2,1.75-4,2.5-2.25,3.25-4,2-5.5,3.75-4,0.75,2.75,1.5,5,0.75,2.25-.5,3.5-2.25,2.75-1.75,3.5,4.75-3,3.75-1.25-2,4.75,0,3.5,5-1.5,3.5-4.25-4.5-4.5-3-6.75,2.25-4,1.25-7.25,1.5-2.75,0-6.25-2.75-6.75-4.25-8.5-1-3.25.25-4.25,2.75-2.5,2.75-2.5a19.28,19.28,0,0,1,1.5,3.5c0.75,2.25,2.5,4.25,3,7.25s1.5,3.25.75,5.5-1.25,1.75-1,5a70.26,70.26,0,0,1,.25,7.25c0,3.25-1,5.75.25,6.5s0.75,2.75-.5,4.5-4,2-4.75,4.75-2.5,2.75-4,6.5-1.5,5.25-3.75,7.25-2.25,1-4.25,5.75-0.5,4.5-3.25,10.75-3,4-5.75,10-4.25,9-5.5,11.25-3.25-3.75-6,0S1414.9,907.17,1414.9,907.17Z" transform="translate(-0.11 -0.13)"/><path class="a" d="M1349.4,811.67s4-3.25,8.75-3.25,6,0,4.25,1a25.82,25.82,0,0,0-3,2s0.25-3.5-4-1.25S1349.4,811.67,1349.4,811.67Z" transform="translate(-0.11 -0.13)"/><path class="a" d="M1354.4,819.42c-1.25.75-3.5-.25-2-2.25s0.25-3.5,3.5-3.5,5-.25,6.5-1a43.39,43.39,0,0,0,4-2.5s-1,.75-1,3.25a48,48,0,0,0,0,6c0.25,2.75.25,5.5,0.25,5.5s-2.75.5-3.5-1,1.5-2.25.25-4.5,1.25-2.75-3-3-5-.75-4.5.75A2,2,0,0,1,1354.4,819.42Z" transform="translate(-0.11 -0.13)"/><path class="a" d="M1357.65,819.67c-1.24.17,2,2.75,2,2.75S1361.4,819.17,1357.65,819.67Z" transform="translate(-0.11 -0.13)"/><path class="a" d="M1371.65,802.17a2.52,2.52,0,0,0,1-3.5c-1.25-2.25-1.5-4-3.25-2.5s-4.25-1.75-1.75-2.25,3.25,0.25,5-2,4.5-4.5,3.25-2a4.3,4.3,0,0,0,.25,4.75c0.5,1,.5.75,0,2.5s-0.5,2,.75,3-0.75,1.25-1.5,2.25S1371.65,802.17,1371.65,802.17Z" transform="translate(-0.11 -0.13)"/><path class="a" d="M1383.4,762.17c-1.44-.86-1.75,3.5,0,3.25S1387.15,764.42,1383.4,762.17Z" transform="translate(-0.11 -0.13)"/><path class="a" d="M1391.15,754.92a46.3,46.3,0,0,0,5,4c2,1.25,1.75,1.75,4,1.75a14.8,14.8,0,0,1,5.25,1.5,16.58,16.58,0,0,1-4.5-4.5c-1.75-2.75-.5-2.5-2.5-5.75s-2-3.5-4.5-5.75-1-3.75-4.75-7.25-7-7.5-10.5-9.25-3.75-3.75-7.25-7.5-2.25-5.25-5.75-8.25-6.5-8.25-6.5-6.25-2,4,.5,5,4.25-.25,4.25,3.25-1.5,4.5,1.5,5.75,4.75,1,6.5,3.75,1.5,4.5,3.5,5.25,4,1.25,5.5,3,3,4.75,1.5,4.25-2.5.75-.25,2.75,3,2.5,4,5.25,1.25,4.25,4.75,4.75a7.94,7.94,0,0,1,6,4.5c0.75,1.5.75,3.25-1,1.75A11.47,11.47,0,0,0,1391.15,754.92Z" transform="translate(-0.11 -0.13)"/><path class="a" d="M1387.15,752.42a7.89,7.89,0,0,0-4.5-3.25c-3-.75-0.25-1.75-2.5-5.5s-3-7.5-.5-3.5,1.75,4.75,4,6.5S1387.15,752.42,1387.15,752.42Z" transform="translate(-0.11 -0.13)"/><path class="a" d="M1316.15,676.92s3.25,5,7,6.5,6.75,1.75,9,4,4.5,6.25,7.75,8.25,5,4.5,7.25,5.25,4,0.25.5-2-3.5-1.5-6.25-4.75-3-4.5-4.75-5-1-3.25-6.25-4.5-6.25-2-8.75-5.25S1315.15,674.92,1316.15,676.92Z" transform="translate(-0.11 -0.13)"/><path class="a" d="M1298.15,673.67c-3,0-2.75.25-5.75-2.25s-0.5-3.75-4-4-3.75,1.75-6.25-1-2-2.5-4.75-3.25-3-2.5-3.25-5.5,0.5-5-1-4-2.25-.75-2-3,0.25-3.75.25-3.75,0.5,1.5,4,2.75,4,1,8,2.25,3.5,1.75,6.75,6.75,4.75,7.5,7.75,8.75,7.25,3.25,7.75,4.5-2.5,1.75-3,2.75S1298.15,673.67,1298.15,673.67Z" transform="translate(-0.11 -0.13)"/><path class="a" d="M1231.15,660.67c-2.75,1-4.25,2.5-4.5,4s3.25,0.75,3.25.75Z" transform="translate(-0.11 -0.13)"/><path class="a" d="M1266.15,651.42s0.75-1.5-4-3.5-4.5-8.5-7.5-7.25-4.75,3-7.25,1.5-2.5-.5-3.75-2.75,1-2-2.75-2.5-6-.25-6.5-2.75,3.25-5,0-5.5-2.5-1.25-4.25,1.25-4.25,4.75-4.75,3.25,0-3,1.25-4.5,2.25-3.5-1-3.75-5.75,0-6-2.25,1.5-3-1.5-3.5-1.25-2.5-3-.5-0.5-.75-3.25-0.25-6.25,1.5-6.25.75,1.25-1.5,1-3.5,1.25-4.25-.75-3.25-1.75,2.75-3.25,1-2.75-4.75-4-3.75-3.75-1.75-4.25-3.25,2.5-3.25-3.25-1.25-5.5,3.25-11,3.25-6.5,1-7.25-3.25,0.25-3.75,0-8.25,2.25-5-2.25-9.25-2.25-1-4.5-4.25-2.25-3.75-7.25-4.5-1.5-4-7-3-9.5-1-5.75-2.75,3.5,1.5,8.25-1.25,6.5-6.25,8.5-5a12.57,12.57,0,0,1,5.25,6.75c1.25,3.5.25,6.5,1.25,8.75s2,1,3.75,3.25,4,2,7.25,5.25,7,4,10.75,6,3,1.5,8.5,3.75,7,2.25,11,6.25,3.5,4.75,7.75,8,13.5,7,22.75,10.75,16.5,7.25,18,11.25,2.5,4,4.25,6,4.75,2,4,4A34.32,34.32,0,0,0,1266.15,651.42Z" transform="translate(-0.11 -0.13)"/><path class="a" d="M1140.4,597.92c-2.25,0-2.25-2.75-2.25,0a13.38,13.38,0,0,0,1,5.5c0.5,1.25,2.5,2.25,2.5-.75A8.68,8.68,0,0,0,1140.4,597.92Z" transform="translate(-0.11 -0.13)"/><path class="a" d="M1072.9,566.17s-4.25-2.25-6.75-4-0.25,0-5-1.75-5.75-3.75-11-5-10.75-6.5-10.75-6.5,5,3.5,6.75,7.5-0.5,4.75,3.75,6.25,6,1,9.25,2a37.15,37.15,0,0,1,7,2.75C1068.65,568.67,1072.9,566.17,1072.9,566.17Z" transform="translate(-0.11 -0.13)"/><path class="a" d="M972.4,510.92a4.35,4.35,0,0,0-3-1.25c-2.25-.25-3-2.75-6-5.75s-3.25-3.5-6.25-4.5-2.75-2-4-4.25-1-3.75,0-5.25,0.25-2.75,3-2.5,2.25-.25,3.75,2,1.75,2.5,4,5.5,4.75,7.25,6.5,9.5S972.4,510.92,972.4,510.92Z" transform="translate(-0.11 -0.13)"/><path class="a" d="M949.9,476.67s-3-3-1.25-3.25,2.25,0.25,2.25,1.5A2,2,0,0,1,949.9,476.67Z" transform="translate(-0.11 -0.13)"/><path class="a" d="M943.9,491.92c0.06,1.12-.75-2.75-4.5-2.75s-6.75-1.5-9.75-1-2.25-.75-2.5-2.75,0-2.5-3.5-2.75-6.25,0-8.25-.25-3-2.5-2.25-4.75a11.67,11.67,0,0,1,2.5-4s0.5,4,2,3.75,3.75-2.75,1.75-4-4.75-3-2.5-3.5,3.75-4.25.5-3.75-3.25,1.25-6.25-.5-2.25-3-1.75-5.25,2.25-3.25-.5-5.5-2.5-2-6.75-4.5-6-2.25-6.25-5.5-2.5-6.5,0-5.25,7,1.75,5-.25-6-4-3-6,2.5-6,5-3.25,5.75,2.75,5.25.5,1.25-5.5-2-6-5.25-.75-7-4.25-1.75-6.5-.5-7.25,3.75,0,5,2,1.25,3.75,3.5,6.25,4.5,2.25,5.25,5.75,0.75,5.5,2.75,9,3.25,3.75,4.75,7.5,4.25,6.75,3,8.25-2.25,2.5-1,5.25a63.2,63.2,0,0,0,3.5,7.25c1.75,3-.75,5,2,7s7,2,5.75,4.75-5.5,3-3.5,4.75,3.25,3.75,6.75,4.5S943.65,487.17,943.9,491.92Z" transform="translate(-0.11 -0.13)"/><path class="a" d="M894.9,405.92c-1.94,1.16-3.25-3.5-4.5-5.5s-0.75-4.75,1.5-1S896.15,405.17,894.9,405.92Z" transform="translate(-0.11 -0.13)"/><path class="a" d="M887.9,394.17a5.25,5.25,0,0,0-6-2.75c-4.25,1-3.75,2.75-7,3.75s-2.5,2-6,1.5-5.75-1-5.75-3.25,0.5-3.75,3-5.5,2.5-3.5,7-3a21.84,21.84,0,0,1,8.5,2.25C884.4,388.42,889.4,391.42,887.9,394.17Z" transform="translate(-0.11 -0.13)"/><path class="a" d="M881.15,378.67c-3.75,2.25-5,2.25-8.5-.5s-1.5-2.5-5.25-2.75-3-2.75-6-3,0,0.5-4.75.5-6.25,1.75-6.75-3,1.25-4.25-2.5-5.25-7-1.75-3.75-2.75,4.75-.5,3.25-3.75,0.25-5-5.5-8-3.75-3.25-8.5-1.5-6.75,2.75-5.75.75,4.75-3.5,4.25-6.5a10.1,10.1,0,0,0-2.5-5,20.41,20.41,0,0,0,2.75-1c1.75-.75,3.25-2.5,4.25-0.75a28.82,28.82,0,0,0,5.25,7.25c2.5,2.25,8.5,9.5,14,12.5s13.5,6.25,19,9.75,9.75,9,9.25,10.25A9.73,9.73,0,0,1,881.15,378.67Z" transform="translate(-0.11 -0.13)"/><path class="a" d="M778.4,301.42c-2.45.7-3.75-2-5.75-4.25s-0.5-3-3.25-3-3.75-1-1.75-2,1.25-3.75,3.25-1.5,1.5,4.5,4.75,6.25S780.15,300.92,778.4,301.42Z" transform="translate(-0.11 -0.13)"/><path class="a" d="M766.15,285.17c-1-.25-0.5-2.75-2.5-4s-0.75-4.75,1-2.5,3.25,2.5,2.75,4.75S766.15,285.17,766.15,285.17Z" transform="translate(-0.11 -0.13)"/><path class="a" d="M741.9,266.17a2.67,2.67,0,0,0-4-.75c-2.5,1.75-3.75,0-2.5-1.75s0.25-4.25.25-4.25a4.85,4.85,0,0,0,2.75,2.5C740.65,262.92,742.65,264.67,741.9,266.17Z" transform="translate(-0.11 -0.13)"/><path class="a" d="M725.9,256.42c-3.75-.5-5.75-1.5-6.25-4.5a5.18,5.18,0,0,1,1.75-4.75s0.75,0.25,2.5,2.75,3.5,2.75,3,4Z" transform="translate(-0.11 -0.13)"/><path class="a" d="M712.15,259.17c0.25,1.5,1.75,3-.75,3.25s-2.75-1.25-6.25-2.25-2.25,0-5.25-1.75-3.75-1.5-3.25-6a24.26,24.26,0,0,0,0-8.5c-0.5-4.25,3.5-7.75-.25-7.75s-4-.75-6.25-2-1.75-.5-4.75-1.5-4.5-2-3.25-3.25,2.25-.5,3.25-1.5,0.75-4.75,3-3.75,2.25,1.5,4.75,3.5a11.61,11.61,0,0,0,8,2.5c2.25-.25,2.5.5,4,1.75s4,3,2,3.25-2.75.75-3.25,2.25-2.25-3.25-3.5.75-3,3.5-2,6.25,0.75,6,3.5,9.25,5.5,4.75,6.75,4.75A15.29,15.29,0,0,1,712.15,259.17Z" transform="translate(-0.11 -0.13)"/><path class="a" d="M643.65,193.67c0.54,1-3-.75-3-2S642.15,190.92,643.65,193.67Z" transform="translate(-0.11 -0.13)"/><path class="a" d="M637.9,182.42s1,4.25-.5,5.25-2-.75-4.75-1.75-3.25-2.75-7-3.75-2.25-1.5-6-4.75-5-5-10-5.5-7.5-.75-8.75-3.75,0.75-2-2.75-5.75-6-10.5-2.75-6,3.5,4.5,7,8,7,4.25,9.75,5.75a35,35,0,0,1,6,3.75c2.25,1.75,4.75,3.5,9,3.5s2.5-.25,3.75,2.5,2.5,4.25,4,3.25A4.52,4.52,0,0,1,637.9,182.42Z" transform="translate(-0.11 -0.13)"/><path class="a" d="M591.65,158.17c-0.75,1.25,0,3.25,2.25,5.75s3,2.5,4,2,0.5,0.25-2-2.5A59.39,59.39,0,0,1,591.65,158.17Z" transform="translate(-0.11 -0.13)"/><path class="a" d="M532.65,213.42c-2.15,1.29-3.25,2.25-7.25.75a32.43,32.43,0,0,1-8.75-4.5c-4.25-2.75-7.25-2.25-8.25-6s-1.75-8,1.75-6,4.75,4.25,8.5,6.25,6.25,4.25,8.75,3.75S533.9,212.67,532.65,213.42Z" transform="translate(-0.11 -0.13)"/><path class="a" d="M528.65,167.42c-3,.25-5,2.25-6.75.75s-2.25-3,.25-2.5,1-2,3.25-.75A11.63,11.63,0,0,1,528.65,167.42Z" transform="translate(-0.11 -0.13)"/><path class="a" d="M504.4,141.42c-1.41.38-4-5-7.5-5s-2.25-2.5-4.75-3.5-5.75-4.75-2.75-3.5,3,3,6,3.75S507.15,140.67,504.4,141.42Z" transform="translate(-0.11 -0.13)"/><path class="a" d="M467.65,128.67c-0.22.76-2.75,1-9.75,2.5s-5,1.5-16.75-1.5-11.5-3.75-23-8-22.75-12.75-18.25-11,7,4.5,8,2,3.75-3.5-1.25-6-6.5-1.5-11-6.25-8.75-6-6-7,1.25-1.25,5.5,2.5,4.5,4.25,10.25,6.5,12.5,2.5,11.25,4-4,4-.5,5,8.25,0,7,2.25-3.25,2.5-1.5,5.5,1.5,5,7,5.5,7.5-1.5,10.25-.25,3.75,0.25,8.75-.25,5.75-3,8-.25S468.15,126.92,467.65,128.67Z" transform="translate(-0.11 -0.13)"/><path class="a" d="M383.65,84.92c-0.5,1.75-2,1-.75,3.75s1,2.75,3.5,2.25,0.75-1.75-.75-3A6.77,6.77,0,0,1,383.65,84.92Z" transform="translate(-0.11 -0.13)"/><path class="a" d="M370.15,76.92c2.06-2.52,3.25,4.25-3.5,3.25s-16.5-9-21-12-5.75-7.5-.75-3.5a86.89,86.89,0,0,0,13.75,9C364.4,76.92,367.9,79.67,370.15,76.92Z" transform="translate(-0.11 -0.13)"/><path class="a" d="M324.4,21.67s-1.75-18.5-.25-18.75S329.4-.33,332.9.67a66.36,66.36,0,0,1,10.25,3.25c4.75,2,18.5,5.75,17.75,8.25s0.25,3.25-5,3.25-8.75-1-13.25.75-9.5,3.5-12.25,4.5A20.31,20.31,0,0,1,324.4,21.67Z" transform="translate(-0.11 -0.13)"/><path class="a" d="M234.65,38.92c-2.19-1.56-2.25-.25-6.5-2.5s-7.75-4.5-7.75-3.5,1.75,3.75,5,4.75S238.15,41.42,234.65,38.92Z" transform="translate(-0.11 -0.13)"/><path class="a" d="M216.15,30.42c-3.5-.5-3.75-1.75-8-3.5a63.65,63.65,0,0,1-10.75-5.75c-1.25-1,4,2.25,7.75,3s5.5,1.25,8.5,3.25S216.15,30.42,216.15,30.42Z" transform="translate(-0.11 -0.13)"/><path class="a" d="M199.15,19.67c-2.75-.25-5.75-4.5-5.75-4.5s0.25-2,3,.25S199.15,19.67,199.15,19.67Z" transform="translate(-0.11 -0.13)"/><path class="a" d="M166.9,0.42c-1.43,1.43.75,1.5,4.75,4.25s6,5.25,7.25,5.75,0.5-5,2.5-2.75,4-2-2.25-3.75S168.15-.83,166.9.42Z" transform="translate(-0.11 -0.13)"/><path class="a" d="M267.9,192.67c-2.75-1.25-5,.5-7-1.5s-1.25-2-4.5-1.5-2.25,2.5-5.5-1.25-3-6.5-5.75-4.5-1,2.5-5.75,2-5,.25-4.75,2.5,1.75,2.25,6,1.75,4.5-1.5,6.75,0,1.25,3.5,5.25,3.5,3.5-1.25,7,.25S267.9,192.67,267.9,192.67Z" transform="translate(-0.11 -0.13)"/><path class="a" d="M211.9,249.67c-3.25-1-4.75-2.25-8.25-2.5s-1.25-1-5.5-2.5-5.5-2.75-9.75-5.25-11.25-6-6.25-6.5,5.75-1.75,9,1.5,3.25,4,7.25,6.5,3.5,4.5,6.5,4.75,7-.5,7,1.75v2.25Z" transform="translate(-0.11 -0.13)"/><path class="a" d="M210.9,259.67c-3.75,0-2.5-2-5,1s-1.75,2.5-5-.5-1.25-4-6.25-4,2.5,7-5,0-8-8-11.5-9.75-8.25-4-6-5.25-0.5-5.5,1.25-5a39.66,39.66,0,0,1,5.25,2c3,1.25,1.25-.5,4.75,4s4.25,6.5,10,8.25,6.75,0.5,8.5,2.75,1,2.25,4.25,3A7.77,7.77,0,0,1,210.9,259.67Z" transform="translate(-0.11 -0.13)"/><path class="a" d="M169.65,253.42c-4.25.25-2.75-.75-2.75-3.75s2.75-3-1.75-4.25-6.25-2.25-2.75-2.75,2-3.75,5.5.25,5,4.75,4,7A12.51,12.51,0,0,1,169.65,253.42Z" transform="translate(-0.11 -0.13)"/><path class="a" d="M155.15,257.42c-0.75,2.25-1.5-.25-0.75,2.25s-0.25,3.25,2.5,4.75,1.75,0.75,5-.25,3-2-.25-3.75a31.91,31.91,0,0,1-5.5-3.75Z" transform="translate(-0.11 -0.13)"/><path class="a" d="M156.4,274.92c-3.75,2-5.5.25-5.75,3s-2.5,1-3.75,2.75-1-.75-4.5-2.5-2.75-4.25-1-5-3-5.25,1.25-4.5,5,0.25,8-1,1.5-1.25,4.25,1.25A5.82,5.82,0,0,1,156.4,274.92Z" transform="translate(-0.11 -0.13)"/><path class="a" d="M129.65,289.92c0.3,2.73.25,3-2.75,4.75s-1.25,1.25-4,2.25-2.5.25-3.75,2.5-2.75,2-5,1.25-2.25-2.25-1.25-5.75,0.25-5.25.25-7.5-0.25-4.5,2.25-2.25,3.5,4,5.75,3,1.25-1,3.25.5S129.4,287.67,129.65,289.92Z" transform="translate(-0.11 -0.13)"/><path class="a" d="M104.9,329.17c-0.25-2,0-.75.5-3.75s1-3,.25-5.25,0.5-1.5-2.5-3-1.5-2-4.25-2.5-1.5-.25-4-2.75,0-4.5-4-3.5-6.75.25-5.75-2.5,2.5-5-1.75-3.5-4.5.25-6.25,2.25-0.5-.75-1.75,2,0.5,1.25-3.25,1.5,0-4.25-2.25-3.75-2.5,3.75-3.75,1.5a11.23,11.23,0,0,1-1.75-4.5c-0.5-2.25,1-1.75,2.5-.75s0-2.5,2.25-1.25,2,2,4.75-.25,3.5-3-.5-3.75-3.5-2-6,0-9,2.5-5.25.25,7.5-3.25,10-5.5,1-4.25,5-3,3.75-.75,7.25,1.75,2.75,1.25,5,3.5,4.75,2.25,3.25,4.25-1.5,4.5-3,2.75-3.75-1.25-3.75-3,1.5-4-1.25-2.75-2-.5-2.75,1.25-3,1.5,0,2.75,2,0.25,4.75,2.75a39.48,39.48,0,0,0,4,3.5c2.25,1.75-.25,2.75,5.5,5.75s9.5,2.75,11,5.5,3,3.25,1.5,7.25A26.35,26.35,0,0,1,104.9,329.17Z" transform="translate(-0.11 -0.13)"/><path class="a" d="M79.4,375.67c-1.25-1.25-.25-3.75-1.5-5.5s-1.75-6-4.5-7.75-2.5-3.75-2.25-6-2-5-2-6.5-0.25-3,2.75-2.75,2.75-.75,4.75,3.5,2.75,5.5,4.25,9.25,2.25,5.5,1.25,7.75S79.4,375.67,79.4,375.67Z" transform="translate(-0.11 -0.13)"/><path class="a" d="M55.65,336.17c-0.25,1.75-1.75,1.25.25,3.75S55.65,336.17,55.65,336.17Z" transform="translate(-0.11 -0.13)"/><path class="a" d="M81.9,395.67c-2.5-.5-3,0-4.25-4.25s-0.75-5.25-2.75-6-2.75-.5-2.5,2,1.75,3.75-2.75,2-4.5-2-3.75-6.25,1.5-5.75-.5-8.25,3.25-1.25,1.5-5-1-5.25-3.5-7-1.5-2.5-1.75-4.25,0.75-3.75-2.5-3.75-4.75.75-3.5-2.5,2.25-8.25,3.75-5.75,2.5,3.25,4.5,9,4,8.75,5.75,12.5a52,52,0,0,0,7,11c2.25,2.5,2.75,1.75,2,5a8,8,0,0,0,1.25,7.25A15.17,15.17,0,0,1,81.9,395.67Z" transform="translate(-0.11 -0.13)"/><path class="a" d="M64.9,396.67c-1.5,2.75,1.25,2.75,2.25,3S64.9,396.67,64.9,396.67Z" transform="translate(-0.11 -0.13)"/><path class="a" d="M59.9,403.92c-1,2-2.75,1.25-2,3.5s3.5,0.5,2.25,3.75-3.75,4.75-1,6,2.25,1.25,1.25,3.5,0,3.25,2.5,1.75,2,1.75,2.25-6,5.75-10.75,1.25-10.5S59.9,403.92,59.9,403.92Z" transform="translate(-0.11 -0.13)"/><path class="a" d="M58.15,390.17c-1.25-5.25,1-7.25-2-10s-3.5-5.25-6.75-7-5.5-5-4.25-.5,0.75,6.5,3.75,7.75,3.25-.25,4.25,1.75,0.25,2.5,1.75,4.5A24.69,24.69,0,0,0,58.15,390.17Z" transform="translate(-0.11 -0.13)"/><path class="a" d="M61.15,378.92c-0.75-4.25-.25-4.75-3-7.5s-2.25-5-3.75-8-1-8.25-1-8.25,4,8.75,6.5,11.25,4,3,2.5,5.25,0,3.25,0,4.75A3.54,3.54,0,0,1,61.15,378.92Z" transform="translate(-0.11 -0.13)"/><path class="a" d="M45.4,386.42c-4-1-1.25-3.5-6.25-.5s-4,3-8.25,4.25-4.75,2.25-6.5,1.5-0.5,0-3-7.25-6.5-8.5-3.75-11.25,4.5-2.25,6.25-8.25-0.25-7.25,2.5-8.5,2.75-2.75,5.75-.75,3.25,1.75,4.5,5.5,0.75,1.25,2.75,7.5,2.25,7,4,8.75,4,3.75,3,5.5A7.82,7.82,0,0,0,45.4,386.42Z" transform="translate(-0.11 -0.13)"/><path class="a" d="M19.4,393.17c-7.25,1.25-5,0-8.75,2.25s-5,3.5-7.25-4.5-4-10.25-3-13.25,1-3.75,4.75-2.25,2.5,0.25,6.5,2.25,7.5,0.5,7,4-0.75,4,.75,7S19.4,393.17,19.4,393.17Z" transform="translate(-0.11 -0.13)"/><path class="a" d="M341.15,299.17c-2.22-3.11-6.25-4.75-1-8.25s5.25-4.25,8.25-6,7-1.5,7.5,3.75,1.25,5.25-2,6.5S342.4,300.92,341.15,299.17Z" transform="translate(-0.11 -0.13)"/><path class="a" d="M694.27,416.44c-5.82-3.21-12.64-2-12.64-2s3.61,4-1.4,4-4.21.2-9.23-4.21-1.4-3.61-9-5.22-9-5.82-9-8.83,0.8-4.82,2.41-3.61,0.8-4.21,4-.4,5.42,7.83,6.62,4-0.6-7.22,3.61-3.61,2.61,2,10.24,7.43A120.81,120.81,0,0,1,694.27,416.44Z" transform="translate(-0.11 -0.13)"/><path class="a" d="M647.71,369.88c0.2,4.42.2,7,2,8.63s0,0.2,1.2,4,0.4,6.82,2.61,5.62,0.6-3.81,4-2,4.42,2.41,3.61-1.81-0.4-3.81-3.41-6.22a49.94,49.94,0,0,1-6.42-6A9.58,9.58,0,0,0,647.71,369.88Z" transform="translate(-0.11 -0.13)"/><path class="a" d="M628,343.79c-2.61-1.4-6.82-2.41-8.63-6.62s-0.8-5.82.4-5,2-2,3.41,1.81A88.88,88.88,0,0,0,628,343.79Z" transform="translate(-0.11 -0.13)"/><path class="a" d="M631.86,320.71c-5.42,1.4-7.83,2.41-10.44,2.21s-2.41-.6-2.81-3.21-1-8.43,0-7.63,0.2-.2,4.82,1,7.22,2.21,9.43,1.81,1.61,0.2,1,2.21A11.06,11.06,0,0,1,631.86,320.71Z" transform="translate(-0.11 -0.13)"/><path class="a" d="M625.63,293.82c-1,2.21,0,2,1,4.21a14.61,14.61,0,0,1,1.2,3.81s1.61-2.41,1-4-1.81-4-1.81-4h-1.4Z" transform="translate(-0.11 -0.13)"/><path class="a" d="M613.39,326.33l-1,.8a20.4,20.4,0,0,0-2.61-.8c-2.21-.6-2.21,0-3-1s-0.2-1.4-1.61-3.41-0.4-4.82,0-5.82a6.2,6.2,0,0,0,.4-4.82c-0.8-2-.8-2.61.8-4.21s2.41-3.41,3.21-2.81,3-1,2.21,1.4,0,3.21,0,5.62,0.4,1-.6,4.42-1.61,3.81.2,5.82A9,9,0,0,1,613.39,326.33Z" transform="translate(-0.11 -0.13)"/><path class="a" d="M1074.15,1124.59c2.33,4.67,2.33,4.33,3.67,7.33s3.5,3.67-.5,5.67-6.5,4-5.17,5.83,3.33,2.67,4.67,4.67-1.67,3-3,5-0.67-.5-4.33-4-7.33-5.17-4.83-8.83,5-6.83,6.5-10.17A38,38,0,0,1,1074.15,1124.59Z" transform="translate(-0.11 -0.13)"/><path class="a" d="M1052.82,1130.92c1.33-.83,2-1.33,2.83-5.17s0.5-3,0-6.83,0.33-7.83-1.17-6-1.67,1.33-1.33,3.17a8.64,8.64,0,0,0,.83,2.67,4.7,4.7,0,0,1-2-2c-0.83-1.5-.83-2.67-2.33-2.5s-1.17.17-1.33,2,1,1.33-.67,2.67-1.83-.67-2,2,0.5,3-.33,4.83-2.5.17-2.33,2.83,1.33,1.83.17,3.83-2.17.67-1.67,3-0.17,2,.67,3.33,2.17,0.33,2.5-2.17,0.5-3,1.83-4,1.5-.5,2.17-1.67,1.17-1.33,1.17-2.83-0.17-1.17,1.17-2.67,1.17-2,1.83-3.17a8.23,8.23,0,0,0,.83-1.83,3.32,3.32,0,0,1,.67,3.67,11.56,11.56,0,0,0-1,4.5Z" transform="translate(-0.11 -0.13)"/><path class="a" d="M1038.82,1149.59c-1.67.5-3.67,1.83-2.17,2.83S1038.82,1149.59,1038.82,1149.59Z" transform="translate(-0.11 -0.13)"/><path class="a" d="M1031.15,1168.09c-3.17-2.67-5-3.83-5.17-6.33a12.24,12.24,0,0,1,.67-4.67s-0.17.67,0.83,3.5A62.38,62.38,0,0,0,1031.15,1168.09Z" transform="translate(-0.11 -0.13)"/><path class="a" d="M1014.32,1154.76c-4-3.17-4.83-2.67-7.33-3.33s-2.33-.83-3.83-3.5-0.5-2.67-2.33-2.83-2.83.17-.5-3,4.17-2.33,2.33-5.67-3.17-4.33-2.67-7,0.67-3.5,1.33-6.83-1.33-3.67,1-4.83,3.5-3,4.33-1.5,1.83,1.17.67,2.83-2.33,2.33-1.17,3.17,1.33,0.17,2.33.83,1.33,0.33,1.5,2.33,0.33,2.5,2.33,2.5,2.83,0.33.83,3.17-2.17,2.83-3.17,6.17-0.67,4.67.67,7.17a11.1,11.1,0,0,0,3,3.67,11.39,11.39,0,0,1,3.33-2.33c1.5-.5,1.83,0,3,0.5s2-.17.17,2.17S1014.32,1154.76,1014.32,1154.76Z" transform="translate(-0.11 -0.13)"/><path class="a" d="M1049.15,1095.09s-1.5.33-3,4-1.17,6.83-3.33,9.83-3.33,5.67-3.5,8.67-1.5,3.67.33,5.17,3.33,1,2.83-3-1.17-4.17,1-6.67,0.83-3.33,2.17-5.67,0.33-3.33,2.5-5.67,2.5-2,3.17-3.5,0.17-2.67-1.33-2.33S1049.15,1095.09,1049.15,1095.09Z" transform="translate(-0.11 -0.13)"/><path class="a" d="M1053,1077.59c-2.67-3-6-5-3.5-6.17s3.17-1.17,3-4,3.17-5.5,4.17-3.67a13.64,13.64,0,0,0,3,3.5c0.67,0.67-2.17.5-2.17,2.67s-2,2.5-1.67,3.83S1053,1077.59,1053,1077.59Z" transform="translate(-0.11 -0.13)"/><path class="a" d="M1028.48,1063.42c-1.48.56-2.33-1.33-1.83,1.33s-0.33,3.17,1.5,5.33a14.36,14.36,0,0,0,4.33,3.33s-1-1.67-2.5-4S1029.82,1062.92,1028.48,1063.42Z" transform="translate(-0.11 -0.13)"/><path class="a" d="M1018.48,1049.09c-1.14.71,0.33,2-.83,4.33s-3.17,5.17-1.17,4.17,4.5-1,5-3,1.67-4.67.33-4S1019.82,1048.26,1018.48,1049.09Z" transform="translate(-0.11 -0.13)"/><path class="a" d="M1015.15,1061.26c-1,1-.5-0.33-1,2.67s-1.67,1.33-1.67,3.5-2.67,2.33-1.17,3.67,3.33,3.33,3.5,1.33,1.5-1.83,1.33-3.83,1.67-3.17.83-4.5S1015.15,1061.26,1015.15,1061.26Z" transform="translate(-0.11 -0.13)"/><path class="a" d="M1020.82,1077.92a29.73,29.73,0,0,0-3.33.67l-0.5,4.67S1023.32,1077.59,1020.82,1077.92Z" transform="translate(-0.11 -0.13)"/><path class="a" d="M1008.65,1072.92c-0.5,0-.83-1.67-3.17-1.33s-5.33,1.17-3.5-.67,2.83-2.5,4.33-1A15.21,15.21,0,0,1,1008.65,1072.92Z" transform="translate(-0.11 -0.13)"/><path class="a" d="M996.65,1111.09c-0.4,3.18-4.83,2.17-6.33,4.17s-2.17,4-4.17,4.17-1.67-1-5-.67-4.33-5.17-5.17-3.5-0.67,1.5-2,2.5-2-.33-5.17.33-5,2.67-5,.33,1.83-1.17,1-4.33a16.34,16.34,0,0,1-.67-7.33c0.33-2.67.33-2.33,1.67-5.33s2.83-3.17,2.67-5-0.83-1.33-1-3.83-1.83-6,0-6.5,3-1.5,4.17-.5a16.15,16.15,0,0,1,3,3c1.83,2.17,2.67,3.33,1,5s-2.17,1.5-2.5,4.17,0.67,2.67-1.33,4.33-4.17,2.5-2.33,2.67,2.33-.17,2.33,1.33,1.33,2.5-1.17,3-3,1-3.17,2.33-0.17.5,2.17,0.33,5-2,7-1,3.5,2.17,6.33,2.33,2.83,0.17,4.83-1.5,1.83-1.5,4.17-2S997,1108.42,996.65,1111.09Z" transform="translate(-0.11 -0.13)"/><path class="a" d="M978.15,1134.09c-2.37-2.11-1.33-.17-5.67.33s-5-.17-8.67-0.33-3.5-1.33-5,1.33-0.67.67-5.33,4.67-4.83,5-9.67,7.17-3,2.33-8.83,1.33-7.83-2-7.83.5-0.67,2.67,1.17,5,2.83,2,5.5,4.17,3.83,1.33,6,1.17,1,0.67,3,2.5,3,1,5.5,2.67,1.17,1.33,4.17,3.17,5.17,0.5,10,3.17,5,5.33,9,5.5,4.67-.33,3.67-2.33-1.33-3.83-4.67-4.33-6.17.5-6.67-1.5,1.5-2.67-.83-4.5-0.67-4.17-4.17-4-1.17.83-5.5,0.17-5.33,1.33-6.5-1.83-2-5.33,0-8.17a16.74,16.74,0,0,1,7.17-5.67c2.83-1.33,5.67-4.5,7.5-2.67s4.83,3,3.67,5-4,2.83-3.67,4.67,2.17,1.67,2.5,4-1.83.67,0.5,3.67,0.67,2.33,3.33,3.67,2.17,1,4.67,1.17,2.5-2.5,4.5,1.5,5.83,11.33,5.67,13.5-0.5,7.5-2,9.83-2.5,5.33-4.5,8.5-3.67,3.67-7.17,5.33-4.33,2.5-2.33,4.5,2.67,0.17,5.83,2.67,4.17,1.83,6,3.33,4.5,4.67,4.83,1,0-5.5.33-8.83,1.33-8.17,2.17-13.67-0.5-13.5,0-16,2.83-1.67,1.67-4.5-0.5-3.17-3-9.33-2-5.33-4.67-9.83-2.5-3-2.5-6.5S979.65,1135.42,978.15,1134.09Z" transform="translate(-0.11 -0.13)"/><path class="a" d="M953,1091.76c-1.33-4.67-2.83-4.67-.17-6.17s10.33-6,10.33-6,6.33-6.17,3.67-2.33,5.17-.33-3.83,4.5-8.67,3.67-9.17,5.83S953,1091.76,953,1091.76Z" transform="translate(-0.11 -0.13)"/><path class="a" d="M983.48,1048.42c-3.5,6.17-5.83,10.17-5.83,10.17l-5.33,7.67-2.83,6.67s-1,4.5,1.5-.17,1.5-6,4.67-8.33,6.17-4.67,6.17-4.67,3.5-.17,3.17-1.67-1.83-2.5-1.33-4.83,1.5-3.83,1.33-4.67S983.48,1048.42,983.48,1048.42Z" transform="translate(-0.11 -0.13)"/><path class="a" d="M971,1051.92c-2.83-3.83-3.5-6.33-1.5-5.17s1.67,3.67,2.83.67,3.5-6,4-6,1,1.17-1,3.83-2.33,3.83-2.5,5S971,1051.92,971,1051.92Z" transform="translate(-0.11 -0.13)"/><path class="a" d="M988.82,1042.42c3.67-2.17,6.67-4,6.67-4a6.57,6.57,0,0,1-1.5,3.67c-1.33,1.33-1.83-1.17-4,.83S988.82,1042.42,988.82,1042.42Z" transform="translate(-0.11 -0.13)"/><path class="a" d="M960,1066.92a10.26,10.26,0,0,0,1.17-4,3.83,3.83,0,0,1,2.33-3.67c1.5-.83,3.17-0.5,1.83,1.17a13.49,13.49,0,0,0-2.83,4.83C962.15,1066.76,960,1066.92,960,1066.92Z" transform="translate(-0.11 -0.13)"/><path class="a" d="M1012.32,1034.42s2.67,4,4.67,1.5,1.83-6.67,3.67-7.5,1.17-2.67-.67-1.83-1.67-1.17-2.33,2.33,0.67,5.33-1.5,5.33S1012.32,1034.42,1012.32,1034.42Z" transform="translate(-0.11 -0.13)"/><path class="a" d="M1027.65,1028.26s-1.67-2.17.5-3.5,2.5-2.83,3.83-5.83,0.5-1.67,2.83-3.17,1.33-4.33,3.33-4,3.5-1.33,3,1.83,2.5,2-1.17,5.67a78.63,78.63,0,0,1-8.83,7.67A6.53,6.53,0,0,1,1027.65,1028.26Z" transform="translate(-0.11 -0.13)"/><path class="a" d="M1059.48,1025.09a13.23,13.23,0,0,0-4.5,4.17s-4.33,2-3.83,5.17,0.67,4.83,1.33,4-1-4.83,2.67-5.83,4.67-.17,5.33-2.17S1059.48,1025.09,1059.48,1025.09Z" transform="translate(-0.11 -0.13)"/><path class="a" d="M1039.15,1032.92c1.51,0.3-1.83,1.83-2.83,2S1037.48,1032.59,1039.15,1032.92Z" transform="translate(-0.11 -0.13)"/><path class="a" d="M1054.48,1012.09c0-.83-1.33-1.5,1.33-4.33s2-5.33,2-5.33,2.67,2,.5,4.33A31.56,31.56,0,0,0,1054.48,1012.09Z" transform="translate(-0.11 -0.13)"/><path class="a" d="M1051.82,999.59s-5.33-1.67-6.33-.17-4-1.17-5.83.33-3.67,1.83-7.17,1.33-5.5-1.5-8.5,0-4.83,1.67-4.83-.17,0.67-2.33,2.33-3.67,0.33-4.17,2.5-2.67,1.83,2,6.17,1,2.33-3.67,8.17-3.17,6.67,4,7.83.83,0-6,2.83-7.67,4-2,4,.33-2.17,1.17-2.17,3.67,0.5,4.5-.5,5.83S1051.82,999.59,1051.82,999.59Z" transform="translate(-0.11 -0.13)"/><path class="a" d="M1007,1010.92c-2.84-1.42,3.33-.83,4.5,1.33s1.33,2.33.83,4.83a9.05,9.05,0,0,1-1,3.17s-1.67-2.5-3-4.33S1008,1011.42,1007,1010.92Z" transform="translate(-0.11 -0.13)"/><path class="a" d="M1015.48,1012.76c0,1.33-1.5,1.17-1.5,3s-1.33,4.5.17,3.83,2.33-3,2.67-3.83S1015.48,1012.76,1015.48,1012.76Z" transform="translate(-0.11 -0.13)"/><path class="a" d="M1020.82,1015.42c-1.24,1,1.17,2.83,1.17,2.83a7,7,0,0,1,3.33-2c1.83-.33,2.83-1.83.67-1.67S1022.32,1014.26,1020.82,1015.42Z" transform="translate(-0.11 -0.13)"/><path class="a" d="M1016.15,1004.26c-3.33,1.5-3.33,2.67-5.17,2.67s-2.17-1.83,0-2.33A22.43,22.43,0,0,1,1016.15,1004.26Z" transform="translate(-0.11 -0.13)"/><path class="a" d="M1013.48,992.26s2,3.33,4.17,3,3-3,5-3.17,0.5-3.17,2.5-3.83,17.83-7.5,18.83-9-0.17-3.17,1.67-5.83,1.5-4.5,3.83-4.67,4.17,0.5,4.5-1.83a25.08,25.08,0,0,0,.33-6c-0.17-2-.83-1.33-1.83-2a5.19,5.19,0,0,1-1.5-2.5s0.17,0.5-1.5,5-1,3.5-4,8,0.33,3.67-6.33,8.5-7,5.67-12.33,8.17-9.67,6.83-11.5,6.5Z" transform="translate(-0.11 -0.13)"/><path class="a" d="M1078.82,956.92c0,1.58-2-3.5-3-4.83a10.77,10.77,0,0,0-2.67-2.33s2.17,0.83,2.33-.5,0-1,2-.67,2.5,0.17,3.17,2.67S1078.82,955.09,1078.82,956.92Z" transform="translate(-0.11 -0.13)"/><path class="a" d="M1095.15,926.42c-2.08,1.34-2.33,2.5,0,3.33s2.83,0,3.17,1.67,0.83,0.5,1.83,2.17,3.67-1,5.67-1.33,1.83,0.33,2.5,1.5,3.67,1.5,2,3.67-2,1.5-1.5,4.5,2.33,5.17-.33,5.67-2.5,0-.5,2.83,1.17,2.33,1,4,0.17,1.83,2.17,2.17,2.5-.5,2.83-2.17,1.17-1.5-1.17-2.33-2.83-.83-2.67-2.5-0.17-2.17,1.33-3.33-0.83-4.33,1-3.83,1.17-.33,0-2.67-1.67-3.5-.33-5,0.67-2-1.17-3.17,0.83-5.17-1.5-3.5-4.33,1.33-6.33,2-0.83-1.67-3.5-1.5S1097.48,924.92,1095.15,926.42Z" transform="translate(-0.11 -0.13)"/><path class="a" d="M1116.32,913.26c-0.33,1.67-.67,2.17,2.67.83s3.67-1,5.67-2.17,3.83-1.83,3.33-4.33-0.33-2.67-3-2.67-2-1.33-3,1-1.83,2.83-2.17,4.17S1116.48,912.42,1116.32,913.26Z" transform="translate(-0.11 -0.13)"/><path class="a" d="M1111.15,913.92c-1.83-.33-0.83-0.83-1.33-2.67s1-3.83,2-1.83,2.83,2.5,1.67,3.33A8.52,8.52,0,0,1,1111.15,913.92Z" transform="translate(-0.11 -0.13)"/><path class="a" d="M1118.65,901.26c-1.67,1.39-1.17-1-3.17-.83s-0.83-1.17,0-2.67-0.67-5,1.5-5,0.33,2.33,2.83,1.83,4.33-3.67,5.17-2,3.83,3.17,1.5,3.83-5-.5-6.83.33-2,.83-2.5,1.83S1119.65,900.42,1118.65,901.26Z" transform="translate(-0.11 -0.13)"/><path class="a" d="M1108.15,899.59c-0.9-.54,2.33-3,1.17-4.5s1.5-5,2.33-3.33,1.67,2.5.5,3.67-0.33.83-1.33,2.67S1109,900.09,1108.15,899.59Z" transform="translate(-0.11 -0.13)"/><path class="a" d="M1100,916.26c-1.54,0-1.17,1.33-1.17,2.67a21.88,21.88,0,0,1-.33,3.17s3.83-1.67,3.17-3.33S1102,916.26,1100,916.26Z" transform="translate(-0.11 -0.13)"/><path class="a" d="M1085.48,909.26c-1.74-1.3-1-6.17.17-5.17s2.67-1.17,2.83,0,0.83,0.67-.5,2.17S1086.15,909.76,1085.48,909.26Z" transform="translate(-0.11 -0.13)"/><path class="a" d="M1080.15,904.09a2.66,2.66,0,0,1-2.83-1.67C1077.15,901.59,1080.15,904.09,1080.15,904.09Z" transform="translate(-0.11 -0.13)"/><path class="a" d="M1067.48,902.92c-1.83,0-3.5-.33-2.33,1.5S1067.48,902.92,1067.48,902.92Z" transform="translate(-0.11 -0.13)"/><path class="a" d="M1053,909.42c0,0.5-.5,1.5-1.83,4.33s-0.83,2.83.5,5.33-1.5-4,1.83-3.5,2.17-2.67,1.67-3.83A7.37,7.37,0,0,0,1053,909.42Z" transform="translate(-0.11 -0.13)"/><path class="a" d="M1057.65,923.92a31.1,31.1,0,0,1-1.67,2.67s2.33,2,2.5,3.17a2.06,2.06,0,0,1-.67,2.33,2.58,2.58,0,0,0-.83,1.67s3.17-.17,3.17-0.83-1.5-3.83.33-4.33,3-.33.67-1.67A11.55,11.55,0,0,1,1057.65,923.92Z" transform="translate(-0.11 -0.13)"/><path class="a" d="M1083.32,924.59c1.76-.53-3.83,0-5.5.17s-2.17-.17-2,2.83,1.33,3.67-.67,6.17-1.33,3-4.5,5.83-3.67,1.5-3.67,3.67-1,3.17.33,3.33a16.63,16.63,0,0,1,4,1.67s-1.67-1-.67-4.5,0-1.5,2.67-3,1-3,3.17-6.17,2.5-1.33,4-3.33S1080,925.59,1083.32,924.59Z" transform="translate(-0.11 -0.13)"/><path class="a" d="M1083.15,935.26s2.67-4.5,2.5-1.5-1.5,5.5,1.17,4.33,5.17-2.17,3.67.17-2.5,4.17-4,3.83,1.17-2-.67-2.5-0.33-3.83-1.83-3.33S1083.15,935.26,1083.15,935.26Z" transform="translate(-0.11 -0.13)"/><path class="a" d="M1077.32,941.42c-0.83,2-1.67,1.33-2,2.5s-0.67,2.67,2,2.67,3-.5,2.67-2.33S1077.32,941.42,1077.32,941.42Z" transform="translate(-0.11 -0.13)"/><path class="a" d="M1062,946.92c-1.81.45-.83,2.5,0.17,4.5s2.67,1.83.83,3.17-3.5,3.5-.83,2.83,3.33-1.5,4.5-3.67,2.17-3.83.67-3.83-1.33,2-2.17,1S1062.65,946.76,1062,946.92Z" transform="translate(-0.11 -0.13)"/><path class="a" d="M1058.32,955.09c-0.5.33-1.67,2.5-2.17,1.17s-0.33-2-1.5-1.83-2.17-.5-1.83-2.67,0.33-1.83-.83-2.67-0.5-2-2.67-4.5-2.17-3.83-4.67-5.17-9-9-10.33-9.5,0.17-.5,3.83,1.33,4.67,1.33,6.83,2.83-1.67,1.17-.33,3.33,2.67,1.67,4.83,1.33,2.33,0.83,2.5,2.17,3.67,1.33,3.67,1.33a2.84,2.84,0,0,0-.33,2.17c0.33,1.17,3.67,2.33,3.67,3.83s-4.33,1.17-3,2a23.56,23.56,0,0,1,2.33,1.67s-3-.33-2,0.83Z" transform="translate(-0.11 -0.13)"/><path class="a" d="M1055.48,935.09c-1.82-1.46-3-.33-3.67.83s0.83,2.5.83,2.5S1056.32,935.76,1055.48,935.09Z" transform="translate(-0.11 -0.13)"/><path class="a" d="M1041.65,929.76c-0.77.92-3-1.33-2.33-2.33S1042.48,928.76,1041.65,929.76Z" transform="translate(-0.11 -0.13)"/><path class="a" d="M1024.82,949.92c-0.83.17-5.33,1.33-6.83,0.17s0.5-2.17,2.33-3,2.83-1.17,2.67-2.33,2,0.17,2.83,1.17S1024.82,949.92,1024.82,949.92Z" transform="translate(-0.11 -0.13)"/><path class="a" d="M999.82,978.76s-1.33,6.67,5.17,5c0,0,1.67-1.33-.67-2S1000,977.42,999.82,978.76Z" transform="translate(-0.11 -0.13)"/><path class="a" d="M989.82,945.26c-0.67,1,.17,3,0.33,5.67s0.33,3,2.5,2.83,6.5,1.67,5-.17-3-2-3.83-4.33S989.82,945.26,989.82,945.26Z" transform="translate(-0.11 -0.13)"/><path class="a" d="M1002.32,953.09c3.17-.5,9-0.17,6.83,1s-4.67.67-6,.5A1,1,0,0,1,1002.32,953.09Z" transform="translate(-0.11 -0.13)"/><path class="a" d="M1002.82,937.59a3.66,3.66,0,0,0,3.83.17c2-1.17,3.67-.33,3.67-3.67a70.33,70.33,0,0,0-.5-7.33,17.63,17.63,0,0,1-1.17,3.67c-0.83,1.83-1.5,1.67-1.33,3.5s-0.33,2.5-1.33,2.67A24.54,24.54,0,0,0,1002.82,937.59Z" transform="translate(-0.11 -0.13)"/><path class="a" d="M1016.15,939.92c-0.89.39-.67,1.67-1.83,2.5s-1.33,2.33,1.17,2.17,1.67,2,3.5.83,2.5-1.5,1.17-2.67S1017.65,939.26,1016.15,939.92Z" transform="translate(-0.11 -0.13)"/><path class="a" d="M1017.65,924.42a11.49,11.49,0,0,0,1.17-2.5c0.5-1.5.5-4.83,1-2.83s2.67,2.67,1.5,3.5A23.42,23.42,0,0,1,1017.65,924.42Z" transform="translate(-0.11 -0.13)"/><path class="a" d="M1019.82,916.26a30.74,30.74,0,0,1-1.67-2.67c-0.33-.67.67-1.17,1.17-1.17s2,0.33,2.17,1.17,0,2.17-.5,2.17A2.57,2.57,0,0,0,1019.82,916.26Z" transform="translate(-0.11 -0.13)"/><path class="a" d="M1016.15,906.09c-1.33,1.33-2,.33-1.33,2.5s1,3,1.33,1.17A11.64,11.64,0,0,0,1016.15,906.09Z" transform="translate(-0.11 -0.13)"/><path class="a" d="M1028.48,881.76c-0.83,1.5-1.33,1.83-1.17,2.67s0.33,0,2.33,3.5a24.32,24.32,0,0,0,3,4.5,6.78,6.78,0,0,0-1.33-4.5A29.22,29.22,0,0,1,1028.48,881.76Z" transform="translate(-0.11 -0.13)"/><path class="a" d="M1035.15,880.76a22.43,22.43,0,0,1,4,6.67s2.33,3.67,1.5,6.17-1.17,4.5.17,4,0.33,1.83,1.67.67,1.67,0.5,2.17-2.83a19.75,19.75,0,0,0,0-7c-0.33-3.17-1.17-2.5-2.5-4.83s-0.83-2.33-3.17-2.67S1033.82,879.26,1035.15,880.76Z" transform="translate(-0.11 -0.13)"/><path class="a" d="M1041.82,874.26c3.17-1.5,7-3,1-3.33s-6.17-2.67-8.33-.83-2.83,3.33-3.5,1.33-0.67-3.83,3-5.5,4.33-.83,7.17-2,2.5-2.33,5-1,6.33,0.83,4.67,2.83-4.33,2.83-2.67,3.83,3.17,1.83,1.5,3.67-2.33,1.67-5.5,1.67S1041.82,874.26,1041.82,874.26Z" transform="translate(-0.11 -0.13)"/><path class="a" d="M1005.15,899.26a10.74,10.74,0,0,0-5.17.83c-1.83.67-2,1.67,0.5,1A24.39,24.39,0,0,0,1005.15,899.26Z" transform="translate(-0.11 -0.13)"/><path class="a" d="M1007.65,913.26a8.82,8.82,0,0,0-3.67,2.67s1.67,3.17-2.5,5.5-6.67,5-7.83,5-0.17-3.33.17-4.67,0.5-2.33,3.33-3,3.33,0.67,3.33-2.5-0.67-4.17-.17-5.5,1.5-1.5,3.83-1.5,2.17,0.83,3.17,1.83A1.83,1.83,0,0,1,1007.65,913.26Z" transform="translate(-0.11 -0.13)"/><path class="a" d="M998.48,911.26c-2.5,1.5-2.5-.17-5,2.33s-1,2.83-4.17,3-2.67,1.33-4.33-1.17-1.33-2.67-3-4.5a12.41,12.41,0,0,1-2.67-4.5c-0.17-.67-1.67,1-1.83,3.67s-2,2.5-2.5,4-0.83,2,2,1.67,4.33-1.17,4.5.67,0,2.17,2.5,1.67-0.17.17,3.5,0,4.33-.17,6.33-0.67,2,0.17,2.83-1.83S1000.15,910.26,998.48,911.26Z" transform="translate(-0.11 -0.13)"/><path class="a" d="M978,919.26c-2.33,0-1.33,0-3.5,1.33s-1.67,2.17-3.67,1.67-2.83-1.5-.17-2.33,3.17-1.83,5-2A2.15,2.15,0,0,1,978,919.26Z" transform="translate(-0.11 -0.13)"/><path class="a" d="M980.65,937.76c-1,2.17-1,1.17-2.67.5s-1.83-.67-3.83.5-1.5,1.83-.67,2.83,0.67,0.83.67,3,1.33,2.33,2.33,4,1.67,2,1.5-.5-1-5.67.83-6,2.67,1,3.33-1.67S980.65,937.76,980.65,937.76Z" transform="translate(-0.11 -0.13)"/><path class="a" d="M960.32,912.76c2-1.17,2-1.33,3.5-.83s2-1.67,0-3.33-0.17-1.83,1.67-3.17,1.33-3.33-1.17-3.33-1.5.17-4.33,1.67-5.17,1-2.67,3.17,5.5,2.33,4.33,3.33A4.24,4.24,0,0,0,960.32,912.76Z" transform="translate(-0.11 -0.13)"/><path class="a" d="M971.15,909.76c-1.33,2.17-4.17,2.83-2.67,4s2.5,2,2.33.33A19.75,19.75,0,0,1,971.15,909.76Z" transform="translate(-0.11 -0.13)"/><path class="a" d="M956.32,896.42c-1.67,1.67-2.17,2-.83,3s2.17,1.83,2.17,0A4.3,4.3,0,0,0,956.32,896.42Z" transform="translate(-0.11 -0.13)"/><path class="a" d="M971.65,886.59c-0.67-2,.83-2.67,3.17-3.83s1,1.17-.5,2.33A8.82,8.82,0,0,1,971.65,886.59Z" transform="translate(-0.11 -0.13)"/><path class="a" d="M983.32,883.26a1.87,1.87,0,0,0-1.17,2.5s-3.83,1.83-1.17,2.33,3.67,1.17,5.67,1.67,2.33-.33,3.83,1,5,1.83,2.67,0-1.67-1.17-1.33-3-1.33-.5.5-3.5-0.33-4,1.5-8.5,3.67-5.17.83-6-3.83-1.17-4.17-2.83-1.67-1.5-3,.5-0.83,3-3,1.17-2-4.83-2.67-1,1.17,3.83-1,5.17-0.5-.17-3.33,1.33-5.33,1-2.17,2.67,2.5,3.67,4.5,2.33,1.67-1.5,4.17-2.33,3.33-3,4.83-.5,1.5,0.5,1.33,3.5,0.83,5.33-1.17,4.83S984.65,882.76,983.32,883.26Z" transform="translate(-0.11 -0.13)"/><path class="a" d="M1009.15,867.76a47.28,47.28,0,0,0,.67-8.5s7.17-3.83,5.83-1.67-1.67,1.83-1,4.67-0.17,2.83-1.33,2-1.83.67-1.83,2.83S1008.82,869.59,1009.15,867.76Z" transform="translate(-0.11 -0.13)"/><path class="a" d="M1018.48,856.59c3.17-1.17,4.17,1,4.67-3.17a37.08,37.08,0,0,1,2-8s-0.33,6.67-.67,9.33,0.33,2.17-2.33,3A2.9,2.9,0,0,1,1018.48,856.59Z" transform="translate(-0.11 -0.13)"/><path class="a" d="M972.15,870.42c-1.17-1.5-3.33-2.5-1.33-3.33s1.17-1.83,3.67-1.67,5.33,0.17,5.33.17,0.17,1.17-2.5,1.67-3.17-.33-3.67,1.5S972.15,870.42,972.15,870.42Z" transform="translate(-0.11 -0.13)"/><path class="a" d="M990.32,861.42c-5.78,1.65-7.83.5-9.67,0.17s-1.5-1.17-.17-2.33,1-1.5,3.83-2.67,3.5-.83,6-2.5,2.33-.67,2.17-4-0.33-4.5,1.17-6.33,0.33-3.67,1.5-3.67-0.67-1.67,1.83.83,4.5,0.33,2.83,4.33-1,3.33-2.5,6-0.67,3-2.83,3.17-1-.33-3.83,1.17a22.39,22.39,0,0,1-4.67,2c-1.83.67-2.33,0.33-.83,1.5S991.48,861.09,990.32,861.42Z" transform="translate(-0.11 -0.13)"/><path class="a" d="M974.15,855.59c-2.5-.33-1.83.33-3.17-3.17s-2.67-9-.33-6.5,3.33,3.67,4.67,4,0.17,1.17-.83,2.5A3.7,3.7,0,0,0,974.15,855.59Z" transform="translate(-0.11 -0.13)"/><path class="a" d="M1166.65,820.59c-1.83-1.17-3.67-3.67-2.17-4.5s2-1.33,3.17-.33,1.33,0.5,1.5,2.17,0.17,1.67-.83,2.5A1.19,1.19,0,0,1,1166.65,820.59Z" transform="translate(-0.11 -0.13)"/><path class="a" d="M1147.82,816.92c-2,2-2.5.67-4-2.33s-0.5-2.33-3.17-2.5,0.83-.83-3,2-3.33,5.17-7.83,3.17-8-4.67-2.83-7.67,5.67-5.5,10.17-3.33,6.17,1.83,6.5,4,1.17,4.17,2.17,5S1148.32,816.42,1147.82,816.92Z" transform="translate(-0.11 -0.13)"/><path class="a" d="M1134.15,828.26c-2.3-.29-2.5-4-2.83-1.67s-0.83,6.5.17,4.5S1135.48,828.42,1134.15,828.26Z" transform="translate(-0.11 -0.13)"/><path class="a" d="M1082.82,825.42c-1.17-2.17-3.17-3.33-3-4.5s1.67-.67,2.5,1A6.22,6.22,0,0,1,1082.82,825.42Z" transform="translate(-0.11 -0.13)"/><path class="a" d="M1066.48,821.59c-1-.67-1.33-1.17,1-3.5s4.83-2.5,6.17-5.83,0.67-1.17,0-3.83-0.17-4,1.33-3.33,0.5-.17,2.17,1.83,2.17,0.5,2.33,2.83,0.5,1.83-.17,3.5-1.33,3.17-1.33.17,0-6-.67-3.67,4.33-1.5-1.33,3.33-7.17,5.67-7.33,6.67,0.5,3.17-.83,2.5Z" transform="translate(-0.11 -0.13)"/><path class="a" d="M1072.32,829.26a5,5,0,0,0-.75.12,1.37,1.37,0,0,0-1.25,1.38l3,0.33S1073.82,829.09,1072.32,829.26Z" transform="translate(-0.11 -0.13)"/><path class="a" d="M1049.82,840.09a3.16,3.16,0,0,1,3.5-1.5s4-2.83,6-1.33,3,0.33,1.17,3.83a20.79,20.79,0,0,0-2.83,8.17c-0.67,3.83-2.67,8-2,3s1.17-7.67,2.17-10,3.67-3.5.33-3.17-2.83-.5-4.5.83S1049.82,840.09,1049.82,840.09Z" transform="translate(-0.11 -0.13)"/><path class="a" d="M1024,827.09a2.72,2.72,0,0,0-2.17,2.83s-0.83,4.5,1,3.17,1.33,0.33,1.33-2.17A34.44,34.44,0,0,0,1024,827.09Z" transform="translate(-0.11 -0.13)"/><path class="a" d="M923,789.2c-3.09-.62-4.32-2.16-3.46-5.19a11.12,11.12,0,0,0,.43-6.49c-0.43-3-2.59-3.89-4.32-6.49s-0.43-.43-2.59-6.05-0.86-6.49-4.32-10.38-3.89-7.35-5.62-3.89-0.86,6.92-3.46,5.62-1.73-3-1.3-6.05,0.43-3-1.3-6.49-0.86-5.62-4.32-6.05-5.62-4.76-2.59-3.46,5.62,3,8.21.43,3.89-.43,5.19.43a9.07,9.07,0,0,1,3,6.05c0,2.16,0,5.19,2.16,4.76s4.32-2.16,5.19,0a12.44,12.44,0,0,1,0,6.92c-0.43,1.3.43,4.76,1.73,5.19s1.73,1.73,2.16,4.32,0.86,5.62,3.46,4.76,6.92-3,6.49,0-1.73,4.76-1.73,6.92-5.19-.86-3,4.32S925.13,789.63,923,789.2Z" transform="translate(-0.11 -0.13)"/><path class="a" d="M939.83,760.67c-1.22-3.67,0-3.46,2.16-5.62s7.78,0.43,5.62,2.16S940.26,762,939.83,760.67Z" transform="translate(-0.11 -0.13)"/><path class="a" d="M1072.13,774.93s6.49,1.3,5.19,3.89S1070.36,776.94,1072.13,774.93Z" transform="translate(-0.11 -0.13)"/><path class="a" d="M871.73,672.08a75.1,75.1,0,0,1,.23-7.7s3-4.67,2.8-8.17-2.1-4,1.4-6.3,1.4-7.24,4.2-6.54,4-.23,7.24.47a14.33,14.33,0,0,0,7,.23c3-.47,2.33-0.7.47,3s-2.1,6.07-6.07,9.57-3,5.13-7.24,4.43-4-3.73-5.37.93l-1.4,4.67Z" transform="translate(-0.11 -0.13)"/><path class="a" d="M781.41,610a18.55,18.55,0,0,1,3.5-2.57s2.33,0,1.63-2.8-1.87-3.5-4.9-2.57-1.87,3.27-4.9,4-2.57-2.1-4,2.33-3.27,4.67-.93,6.3a14.16,14.16,0,0,0,4.2,2.1,26.22,26.22,0,0,1-1.4-5.83c0-1.87-.7-2.1,2.1-2.8a6.35,6.35,0,0,0,3.73-2.1Z" transform="translate(-0.11 -0.13)"/><path class="a" d="M872,568.22c-0.7.93-2.57-1.4-2.8,5.37s0.23,9.34,1.87,6.07,3.27-4.9,2.8-7.24A11.7,11.7,0,0,0,872,568.22Z" transform="translate(-0.11 -0.13)"/><path class="a" d="M829.49,656.44c-3.73,5.13-4.2,7-4.2,7s2.33-.23,3.5,3,3.73,4,.7,5.83-2.8,2.33-2.57,3.5a4.73,4.73,0,0,0,1.17,2.1l1.4,3.5s4.2,3.73,3.27-.93-2.57-4.9-1.17-6.77,2.33-1.87,1.17-4.67-2.1-2.57-1.63-5.6S829.49,656.44,829.49,656.44Z" transform="translate(-0.11 -0.13)"/><path class="a" d="M770.9,624.46a11.37,11.37,0,0,1,.93,3.73c0,1.63.23,1.63,2.33,1.17s0.7-1.17.23-3S770,623.06,770.9,624.46Z" transform="translate(-0.11 -0.13)"/><path class="a" d="M770.67,647.34c-3.91,1-7,2.1-7,2.1a30.73,30.73,0,0,1-6.3,5.13c-3,1.63-3.5.23-4.43,3.5s-1.4,0-3,3.27-1.63,2.33-1.4,5.13-0.23,3,.93,6.54-0.23,7,3,6.77,6.3,2.57,5.13-.23-2.57-4-3.5-5.84,0.23-2.8,2.33-1.4,5.13,5.13,3.73-.23-2.1-8.4,0-11,1.17,0.23,4-1.87,3.27-4.2,5.6-7.24S772.54,646.87,770.67,647.34Z" transform="translate(-0.11 -0.13)"/><path class="a" d="M761.1,695.65c-2.33,0-1.63,0-3,1.87s-2.33,0,1.4,4.43,5.37,7.7,7.7,10.5,4.67,3,4.9,4.43,1.87,3-2.33,3-4.2-3.27-5.6.47-3.27.47-2.1,4.9,1.17,2.33,3.5,4,2.8,2.8,6.07,2.57,3-.47,4.2,1.4,5.6,4,3.5.93-3.73-7.24-1.4-7,2.8,2.8,3.27-4.9-0.7-9.57.7-11.44,2.57-.23.23-4-4.2-1.17-3.27-5.37-1.17-6.54-1.4-5.83-0.93.47-.47,5.6,2.33,14.47.47,11.9-1.63-6.3-5.37-5.84-5.6,1.63-5.37-2.1,2.1-4.9-1.63-5.6-4.67,1.17-3.73-.7A3.07,3.07,0,0,0,761.1,695.65Z" transform="translate(-0.11 -0.13)"/><path class="a" d="M783.27,702.65c-0.47-4.2,1.63-5.6,1.63-5.6l3,0.7Z" transform="translate(-0.11 -0.13)"/><path class="a" d="M791.68,698.92a1.76,1.76,0,0,1,2.33.93c0.93,1.63,1.17,3.73,4.43,4.9s5.37,0,5.13,3.27,0.7,4.67-.93,6.3-2.8,4.9-3,2.8,1.4-4.67-1.63-4.43-3,3-4.2.23,2.57-3.73-.93-4.43-2.57-.93-4-2.57,0.23-1.87-1.4-1.63,0.47-5.13,1.87-2.8,1.63,4.2,3,3.73,1.63-.7.47-2.8A8,8,0,0,1,791.68,698.92Z" transform="translate(-0.11 -0.13)"/><path class="a" d="M847.93,705a67.7,67.7,0,0,1,5.13,6.3c2.1,3,4.67,3.73,4,1.63s-0.47-4-3.73-6.07S847.69,704.52,847.93,705Z" transform="translate(-0.11 -0.13)"/><path class="a" d="M859.36,710.12c-0.23,1.4-.23,6.54-0.23,6.54s2.33,1.17,2.1,5.37,0.47,6.54.47,9.57,0.7,2.1,2.1,3,2.57,3.73,3.73.47,1.87-5.13.23-5.6-0.93-2.33.7-3.27,1.87-1.17-.47-3.5-2.8-1.4-4.67-5.6A39.66,39.66,0,0,0,859.36,710.12Z" transform="translate(-0.11 -0.13)"/><path class="a" d="M881.07,724.59c-0.47,2.8,0,2.1-2.57,6.3s-4.9,5.6-4.2,7.7,3.27,4.9.7,4-3.5-3.27-5.37.23-0.23,4.2-2.1,7.7-4.2,3-6.3,5.6-0.47,1.87,2.1,4,4.9,6.54,4,2.8-4.43-6.77-1.63-7.47,3.5-2.1,4.43-5.37,1.17-2.33,4-1.17,3.5,1.17,4.67-.23-2.1-2.8,0-4.67-1.17-4.2,1.87-7.94,7.94-2.33,5.37-5.37S881.07,724.59,881.07,724.59Z" transform="translate(-0.11 -0.13)"/><path class="a" d="M885,750.27c-3.27,1.87-4.2,3.27-4.2,3.27L882.7,761a22.91,22.91,0,0,0-3.5,4c-0.93,1.63-.7,2.57,1.17,4.43s4.2,4.9,3.5,1.17,0-7.47,1.17-7,0.93,2.57.93,2.57,1.63,3.5-.23,5.13-3,1.87-.93,2.33,3.73,1.17,3.73-1.63a37.7,37.7,0,0,0-.47-7.24c-0.47-2.8-.47-0.23-1.17-4.67S885,750.27,885,750.27Z" transform="translate(-0.11 -0.13)"/><path class="a" d="M844.42,791.58a11.84,11.84,0,0,1-2.57,2.57l-2.8-.23a3.38,3.38,0,0,1-.7,2.57c-0.93.93-3.73,2.57-.93,1.87s6.07-2.8,7.24-4.43S844.42,791.58,844.42,791.58Z" transform="translate(-0.11 -0.13)"/><path class="a" d="M850.49,795.08c-1.63,1.63-.47,3-3.27,2.1s-1.4-1.63-3.5,1.63-3,6.77-.93,4.43,2.57-4.2,4.67-4.2,2.57-.47,4-2.8S850.49,795.08,850.49,795.08Z" transform="translate(-0.11 -0.13)"/><path class="a" d="M826.45,800.91l-3-1.87s1.87-6.3-2.33-6.3a28.22,28.22,0,0,0-6.07.47s-2.1,1.17-2.8-2.1-6.07-9.8-3-7.47,2.33,1.4,5.37,3.5,4,2.57,7.24,2.1,3.73-1.17,6.07,1.17,5.6,4,4.9,4.2-1.87,1.17-3,3.27A7.77,7.77,0,0,1,826.45,800.91Z" transform="translate(-0.11 -0.13)"/><path class="a" d="M839.76,708.26c-2.58-.37.23,7,0.23,7a4.47,4.47,0,0,1,2.1,4.43c-0.23,3.27.23,4.2,1.4,5.37s1.4,0,2.33-4,3.5-4.2.93-5.6S841.39,708.49,839.76,708.26Z" transform="translate(-0.11 -0.13)"/><path class="a" d="M809.88,726.93c-1.4-4-3.5-4.9-3.5-4.9s0-4.9,1.87-3,3.27,2.33,2.57,4A16.22,16.22,0,0,0,809.88,726.93Z" transform="translate(-0.11 -0.13)"/><path class="a" d="M829.49,732.76c-1.63-2.1-2.57,0-2.57,0a37.75,37.75,0,0,0-.23,4.2c0,2.33,1.17,2.57,1.17,2.57s-0.23-3.27,1.63-4S829.49,732.76,829.49,732.76Z" transform="translate(-0.11 -0.13)"/><path class="a" d="M820.62,741.4c-1.17,0-1.63.7-3.73,1.17s-2.57.47-2.57,3-1.17,1.87,1.63.47A13.23,13.23,0,0,0,820.62,741.4Z" transform="translate(-0.11 -0.13)"/><path class="a" d="M812.68,752.6c-0.7,1.17-.23,2.1-3.5,2.33a8,8,0,0,1-6.07-1.87c-0.7-.7,3-3.73,3-3.73s3,0.23,2.8,1.17-0.47,1.87.23,2.1A17.16,17.16,0,0,0,812.68,752.6Z" transform="translate(-0.11 -0.13)"/><path class="a" d="M808.71,744c-2.1.47-1.87-4-1.87-4l3.27-4.9s3.5,0.7,1.63,2.1-3.73,2.33-3.27,4.2A5.3,5.3,0,0,1,808.71,744Z" transform="translate(-0.11 -0.13)"/><path class="a" d="M802.88,743.27c-2.1,0-4.43-4-2.1-2.57S802.88,743.27,802.88,743.27Z" transform="translate(-0.11 -0.13)"/><path class="a" d="M798.21,737.2c-1.87,0-1.87,1.17-3.27.47s0.47-3.73-1.17-3.5-3.27.47-3.27,2.1,2.57,1.63,1.4,2.8-1.17,1.87,1.17,2.1,4.9,1.87,4.43.47,1.17-2.33,1.17-3A3,3,0,0,0,798.21,737.2Z" transform="translate(-0.11 -0.13)"/><path class="a" d="M890.73,859.69c-1.87-3.75-1.46-3.75-.21-4.58s3.12-2.29.83-2.5-3.12-.83-1.87-2.71-2.92-5.21.21-5.62,3.33-.83,6.25-2.71,2.5-2.71,4-.21,2.29,3.54,3.54,1.67,2.71-3.75,2.92-.83-0.21,3.12-1.25,5-1.25,2.08-.62,3.75,0.63,1.67-.42,3.54-1.67,2.92-.62,3.33,3.54-1.87,2.5,1-2.71,3.54-5,1.46-2.71-4.17-4.79-2.08S890.73,859.69,890.73,859.69Z" transform="translate(-0.11 -0.13)"/><path class="a" d="M885.53,834.48c-1.67,1.67-.42,2.08-1.25,3.75s-1.67,4,.42,4.37,3.54-1,4.79-2.29-1-2.08-1.87-3.33A19.49,19.49,0,0,0,885.53,834.48Z" transform="translate(-0.11 -0.13)"/><path class="a" d="M880.53,838.23c-1.46-2.5-1.25-2.92-3.54-2.71s-2.5-.21-2.5,2.5-0.42,2.5,1.25,4.79,3.54,2.92,2.5,3.75-1.25,1.46.83,1.87,4.79,1,3.12-.42a5.4,5.4,0,0,1-2.29-4.79A26.43,26.43,0,0,1,880.53,838.23Z" transform="translate(-0.11 -0.13)"/><path class="a" d="M863.24,843.44c0-2.5,1.25-2.5-.83-2.92s-1.87-.62-2.92.83-1.46,1.87-3.12,1.25-0.62,1.67-1.87-2.5,0-7.08-2.08-4.79-4,1.25-3.12,3.75,3.12,0.83.83,2.5-3.33,1-2.71,2.92,0.21,3.75,2.08,1.25,1.87-2.08,4.17-1.87,3.12-.21,4,1.25,1.25,2.29,2.92,1.25A9.11,9.11,0,0,0,863.24,843.44Z" transform="translate(-0.11 -0.13)"/><path class="a" d="M877.19,870.94c3,1,3.54,0,4,1.87s0.42,2.92,3.54,2.5,1.87,0.42,3.54,2.29,4.79,2.08,3.33,4-1.87,3.54-4.17,1.67,1.87-5-1.67-4.79-5,2.92-6.25-.62S875.32,870.31,877.19,870.94Z" transform="translate(-0.11 -0.13)"/><path class="a" d="M902,885.31c2.71,0.21,2.08-.21,3.54,1.67s5.62,3.54,3.33,3.75-3.12-.21-4.58-2.08A31.59,31.59,0,0,1,902,885.31Z" transform="translate(-0.11 -0.13)"/><path class="a" d="M918.44,910.1c-2.29-2.5-2.08-3.54-4.58-5.83s-2.5-3.54-.21-4.37,1,0.21,3.12,1.87,5,2.71,3.33,4-2.29,1.87-1.25,2.92,0,2.92,0,2.92Z" transform="translate(-0.11 -0.13)"/><path class="a" d="M898.65,890.52c-1.44,2.4-4-.21-3.12-1.25S899.9,888.44,898.65,890.52Z" transform="translate(-0.11 -0.13)"/><path class="a" d="M922.82,908c0.21,3.54-1.87,2.92.21,5.83s2.08,3.33,3.12,4.79,1.67,0.83,3.54-.21,1.46-2.08-1-3.33-2.29-.62-3.33-3.12A13.27,13.27,0,0,0,922.82,908Z" transform="translate(-0.11 -0.13)"/><path class="a" d="M930.73,920.1c2.52-1.68,3.33-.62,2.71.83S929.48,920.94,930.73,920.1Z" transform="translate(-0.11 -0.13)"/></svg>
