<svg xmlns="http://www.w3.org/2000/svg" xmlns:xlink="http://www.w3.org/1999/xlink" viewBox="0 0 228.68 264.88"><defs><style>.a{fill:url(#a);}</style><linearGradient id="a" x1="192.83" y1="168.27" x2="26.55" y2="72.27" gradientUnits="userSpaceOnUse"><stop offset="0" stop-color="#ec008c"/><stop offset="1" stop-color="#be1e2d"/></linearGradient></defs><title>palm-trees</title><path class="a" d="M171.37,92.32a103.4,103.4,0,0,1,1.42,20.25,81.43,81.43,0,0,1-3.4,19.82,0.89,0.89,0,0,1-.49.5,30.64,30.64,0,0,0-.39-10.71,14.69,14.69,0,0,1-3,8.81c0.26-3,1.54-6,1-9.33-1.41,4-2.78,7.74-6.77,9.75l2.89-5c-1.33.75-2.12,2-3.94,2a22.39,22.39,0,0,0,4.1-7.14c-1.89,1.93-3.45,3.58-5.63,4.54,1.6-2.42,3.38-4.73,4-7.65-2.73,2.09-5.32,4.35-9.1,3.64a1,1,0,0,1,.83-1.08,16.47,16.47,0,0,0,6.72-7.74,1.06,1.06,0,0,0,.22-1.08c-0.36-.51-0.79,0-1.19,0a3.06,3.06,0,0,0-.31.11c-0.63.19-1.53,0.58-1.86,0.1-0.46-.67.54-1,0.91-1.51a23.38,23.38,0,0,0,3.11-5.27c-0.76-.26-1.09.81-1.91,0.43,0.55-1.46,1.92-2.53,2.09-4.27-1,.37-1.67,1.27-3.07,1.23a32.69,32.69,0,0,0,3.6-6.7c-0.88-.18-1.3,1-2.33.51a26.55,26.55,0,0,0,2.72-7,0.67,0.67,0,0,0-.3-0.12c-0.66.33-1.3,1.36-2,.77s0.41-1.2.65-1.83a25,25,0,0,0,1.55-6.58c0.07-.73-0.19-1.05-0.89-1a12,12,0,0,1-3.91-.59,1.14,1.14,0,0,0-1.5.87Q149.92,92.88,145,104.81q-7.36,17.89-13.81,36.13a510.32,510.32,0,0,0-18.53,64.29,227.59,227.59,0,0,0-4,25.12,110.42,110.42,0,0,0-.75,17.05c0.49-.6.86-1.09,1.27-1.53s0.53-.9,1-0.67,0.09,0.78,0,1.17a7.57,7.57,0,0,0-.37,2c1-1.65,1.95-3.32,3-5,0.58-.94,1.21-1.84,1.84-2.75,0.21-.3.43-0.79,0.88-0.58s0.2,0.75.14,1.16c-0.09.63-.62,1.19-0.29,2,1.56-1.45,2.54-3.42,4.34-4.49l0.38,0.3-1.46,3c1.45-.94,2.58-2.21,4-3.09a12.19,12.19,0,0,1,4.83-2.12c-1.29,1.92-3,2.73-4.3,4.18a19.68,19.68,0,0,0,3.71-.66c0.56-.09,1.34-0.51,1.59.25s-0.61.82-1.06,1.05c-2.25,1.15-4.73,1.7-7.38,2.7,1.38,0,2.38-.74,3.8-0.3-2.39,2.18-5.31,3-7.92,4.62,1,0.13,1.77-.57,2.66-0.12,0.06,0.82-.89.83-1.25,1.53a27,27,0,0,1,11.58.7c3.8,1.07,7.35,2.61,10.21,5.67-2.38-.19-4.68.73-6.95,0.51s-3.27.62-4.28,2.38a23.9,23.9,0,0,1,6.3,2.58c0.87,0.58,1.72,1.19,2.57,1.8a0.83,0.83,0,0,1,.49.8c-0.1.42-.52,0.31-0.83,0.33s-0.77,0-1.16,0H70.53c-0.33,0-.66,0-1,0-1.31.06-1.41-.44-0.76-1.45,2.67-4.17,8.82-7.73,14.47-4.72a6.66,6.66,0,0,0,.91.27c-1.23-2.18-2-4.22-3-6.2-1.08-2.18-3-3.32-4.37-5.12a8.21,8.21,0,0,1-1.47-2.75c-0.15-.58-0.52-1.31.61-1.49,0.83-.13.29-0.66,0.09-0.95-0.83-1.17-1.69-2.31-2.55-3.46a1,1,0,0,1-.44-0.83c0.16-.49.65-0.33,1-0.32a22.36,22.36,0,0,1,8.79,2.08c3.69,1.66,6.88,4.16,10.47,6.1-1.43-2.05-3.19-3.84-4.41-6.08,1-.43,1.28.52,2,0.66-1.14-1.16-2.23-2.22-3.25-3.34-0.49-.54-1.58-1.25-1-1.81s1.36,0.46,2,.86a20.86,20.86,0,0,1,1.7,1.29c-0.15-1.66-1.54-2.77-1.41-4.6a18.91,18.91,0,0,1,3.54,4.31c-4.74-27.64-15.83-53-28.33-78-0.38.67,0,1.41-.51,1.91-0.72-.4-0.65-1.27-1.11-1.78-0.3-.33-0.34-1.07-1-0.77a1.1,1.1,0,0,0-.68,1.47A20.78,20.78,0,0,0,63.08,166c0.28,0.42,1.05.79,0.64,1.35s-1-.22-1.67-0.12c0.52,2,1.89,3.49,2.85,5.2-0.71.46-1.2-.27-1.87-0.13a48.08,48.08,0,0,0,3.63,4.93c-0.87.3-1.44-.27-2.19-0.21,0.18,1.22,1.42,1.69,1.78,2.7C65,180,65,180,65.77,181.09a13.47,13.47,0,0,0,2.49,2.63,0.93,0.93,0,0,1,.61.89,0.91,0.91,0,0,1-1.15.36c-0.54-.05-1.07-0.17-1.86-0.31a14.1,14.1,0,0,0,6.88,6.41c0.37,0.15,1.06,0,.93.68a1.15,1.15,0,0,1-1.13.52c-1.85.28-3.45-.48-5-1.25a3.08,3.08,0,0,0-1.64-.7,19.54,19.54,0,0,0,4.66,5.55c-2.13-.28-3.29-1.52-4.92-2.41,0.72,2,2.26,3.07,3.41,4.57-1,.4-1.68-0.27-2.5-0.57,0.37,1.33,1.7,1.9,2.28,3.43-3.45-1.2-4.77-4-6.56-6.7,0.15,2.61,1.24,4.6,1.85,6.76-1.82-1.31-2.6-3.3-3.44-5.51a17.32,17.32,0,0,0,1.22,7.7,3.3,3.3,0,0,1-1.42-1.84,64.3,64.3,0,0,1-6-27.06c0-1.76-1.23-2.42-2.44-3.3,0.44,1.48.91,3,1.33,4.44,0.2,0.72.17,0.74-.61,1.16-0.42.22,0,.42,0,0.6a15.24,15.24,0,0,1,.85,3.35c-1,0-1.18-1.22-2.21-1.36,0.39,2.61,2.3,4.68,2.64,7.55-1.26-.68-1.66-1.89-2.88-2.28l1,2.79c-0.78.37-.86-0.65-1.65-0.55,0.89,2,2.38,3.75,2.46,6.09a27.68,27.68,0,0,0-4.27-3.85c0.63,1.71,1.8,2.82,3,4.27-1.8,0-2.56-1.25-3.84-2.21a51.15,51.15,0,0,0,3.51,5c-1.43,0-2.3-1.1-3.69-2.26,0.92,2.07,1.68,3.68,1.56,5.67l-3.32-4.53A20.21,20.21,0,0,0,47,199.87c-2.34-1.61-3-4.18-3.76-6.69a74.4,74.4,0,0,0-.1,10.52c-1.9-2.65-2-5.67-2-9.08-1.37,1.81-2.18,3.74-4.38,5,0.76-2.67,2-4.79,2.38-7.37-1.94.51-3.06,2.19-5.12,2.9,1.06-1.84,1.91-3.42,2.86-4.93a1.65,1.65,0,0,0-.5-2.53,15.1,15.1,0,0,0-3.22-2.26c0.31,1.83,1.38,3.24,1.27,4.89-0.57.38-1-.39-1.53,0-0.12.91,0.78,1.63,0.66,2.58-0.58.43-1-.35-1.62-0.12,0.14,1.3,1.24,2.24,1.54,3.73-1.41-.55-2.09-1.67-3.18-2.53,0.21,1.9,1.47,3.28,2,5.13-1.78-.58-2.39-2.06-3.41-3.31-0.34,3.4.14,6.67,0.22,10-1.27-2.43-2.57-4.82-2.57-7.63-0.58-.07-0.43.93-1,0.61a1.05,1.05,0,0,1-.24-1.07c0-1.59,0-3.18,0-4.84-0.72.3-.47,1.19-1.27,1.46-0.42-3.58,1.35-6.46,2.86-9.61-1.33.35-1.63,1.72-2.8,2.28,0.06-1.55.94-2.57,1.57-3.67A6.16,6.16,0,0,1,27,181.63c5-4.11,8-9.81,12-14.65,1.75-2.09,3.57-4.11,5.39-6.2a7.73,7.73,0,0,0-4.94,4.35c-0.35.85-.82,1.21-1.45,0.15-0.4-.68-0.81-0.44-1.06.14a11.41,11.41,0,0,0-.48,1.57c-0.14.55,0.08,1.4-.67,1.5s-0.58-.85-1.18-1.29L34,170.11c-0.94-.24-0.61-1.22-1.18-1.8-0.34.77-.64,1.5-1,2.2-0.16.32-.34,0.78-0.83,0.63s-0.3-.54-0.32-0.85c0-.77-0.06-1.54-0.13-2.31a1.29,1.29,0,0,0-.86-1.29,1.23,1.23,0,0,0-1.25.64,10.63,10.63,0,0,0-2.33,5,0.84,0.84,0,0,1-.53.75L24,168.37a17.49,17.49,0,0,0-3.07,5.88c-0.92-.38-0.63-1.27-1-1.86a6.7,6.7,0,0,0-.88,2.4c-0.36,1.12-.27,2.35-1.82,2.94-0.87.33-.95,1.78-1.29,2.76-0.21.61-.36,1.24-0.58,2-1-.72-0.31-1.62-0.61-2.49-1.41,2.07-1.75,4.39-2.29,6.74-1-.44-0.84-1.38-1.18-2.19-1.74,2.42-1.41,5.33-2.13,8-1-2.09-.53-4.21-0.19-6.27,1.15-6.88,5.71-16.53,13.23-23.18-0.61-.4-1.41.13-2.17-0.55a70.24,70.24,0,0,0,9-4.74c2.66-1.5,2.65-1.53,2.05-4.8a5.67,5.67,0,0,0-1.7,2.59c-0.14.36,0,1-.67,1s-0.39-.71-0.53-1.1c-0.41-1.15-.1-2.28.28-3.71a2.64,2.64,0,0,0-1.6,1.9c-0.09.49,0.29,1.26-.47,1.4a1.6,1.6,0,0,1-1.45-.94c-0.16-.22-0.34-0.42-0.69-0.85a2.82,2.82,0,0,0,1.19,2.67,0.64,0.64,0,0,1,.39.66c-0.15.42-.54,0.32-0.84,0.26a8.77,8.77,0,0,1-5.28-2.69c0.16,1.62,1.21,2.47,2,3.64-1.61.15-2.3-.87-3.13-1.87-1.3,1.51-1,3.4-1.35,5.38-1.3-1.42-1-2.85-.9-4.39-1.5.71-2.3,2-3.55,3.18,0-1.63,1.16-2.54,1.34-4-2.32.66-4.34,1.84-6.54,2.69,1.6-2.09,3.86-3.3,6.14-4.6-1-.53-2,0.16-3.18,0,1-1.62,2.57-2,4.23-2.82-2.09-.41-3.75.6-5.62,0.7,1.43-1.68,4-2.57,11.51-4a30.88,30.88,0,0,0-6.13-.42c1.21-1.07,2.72-1.13,4.12-1.43a79.09,79.09,0,0,1,12.8-1.39,3.22,3.22,0,0,0,1.45-.18,3.72,3.72,0,0,0,1.67-2.73c0-.26,0-0.67-0.35-0.64a4.78,4.78,0,0,0-2.33,1.14c-0.56.4-1,1.49-1.61,1.15s0-1.39,0-2.12a2.23,2.23,0,0,0-.16-1.38c-1.72.65-2.55,2.49-4.13,3.26-0.62-.52.11-1.1-0.22-1.58-0.82.22-1.24,1.53-2.05,1.13s0.42-1.52-.34-2.31c-1.45.8-2.28,2.45-4.11,3.27,0.54-2,1.34-3.72,1.43-5.8a16.58,16.58,0,0,1-4.11,3.14c-0.58-.47.12-1.17-0.46-1.55a1.45,1.45,0,0,0-.94.58c-0.48.34-.76,1.2-1.39,1s0-1.1-.46-1.65c-1.12.69-1.75,1.9-2.88,3.05-0.09-1.75.84-2.85,1.14-4.29C10,139.45,9,140.94,7.48,142.3c-0.23-1.91,1.11-3,1.64-4.53A74.62,74.62,0,0,0,0,141.48a17.41,17.41,0,0,1,6.08-5.21c-1.44-.53-1-0.91-0.08-1.32a17.79,17.79,0,0,1,5.55-1.72c-0.85-.59-1.82-0.22-2.92-0.76,3.53-1.37,6.82-1.05,10.37-.47a2.92,2.92,0,0,0-1.54-1.06c-0.54-.26-1.1-0.46-1.63-0.68,0.08-.7.54-0.55,0.88-0.51a7,7,0,0,1,2.27.38c3.07,1.52,5.67.83,7.86-1.58-1.48-.29-3.07.16-5.16,0.26a19.36,19.36,0,0,1,7.13-3.23,4.27,4.27,0,0,0-2.31-.5c-0.3,0-.73.13-0.84-0.3A0.78,0.78,0,0,1,26.2,124c2-1.49,4.3-1.52,6.65-1.23L34,123c-1.11-1.79-2.94-1.91-4.39-2.62,0.15-.76.8-0.58,1.21-0.79-1.38-1.88-3.81-1.76-5.54-3.08a27.53,27.53,0,0,0-6.22-3c-2.14-.89-4.25-1.83-6.31-2.9a71.45,71.45,0,0,0-6.71-2.85c1.23-.52,1.95,0,2.7.09,1,0.13,1.79,1.26,3.07.3,0.42-.31,1.7.49,2.57,0.84s1.45,0.69,2.3,1.11c-0.25-.82-1.06-1-1.15-2,1.6,1,3,1.84,4.44,2.79,0.9,0.61,1.51.64,2.16-.36,1-1.63,2.66-2.35,5-2.43-2.23-1-4.14-.76-6.42-0.57,1.1-1.69,2.59-2.09,4.13-2.49-1.32-1.08-2.94-.89-4.45-1.32,1.68-1.3,3.77-1.22,7.77.16a7.74,7.74,0,0,0-2.37-1.51,14.31,14.31,0,0,1-2.57-1.12c4.66-1.29,8.57.9,12.88,3-1.62-2.22-3.88-3-5.7-4.42a10.13,10.13,0,0,1,5.75,1.51,50.13,50.13,0,0,1,5.11,3.35c-0.4-2.15-2.33-3.22-3.33-5a33.86,33.86,0,0,1,5.51,4.13L42,100.25c1,0.23,1.08,1,1.69,1.52-0.16-1.92-1.11-3.6-.86-5.64,1,0.83.74,2.11,1.62,3.18-0.75-2.78-1.62-5.21-1.09-7.82,2.43,7.88,3,16.32,7.39,23.5,0.1-1.31-.68-2.45-1.15-3.68-0.09-.24-0.49-0.6.08-0.75a0.54,0.54,0,0,1,.33.23c1.37-7-1.91-13-4.54-19.14-1.39-3.26-2.44-6.66-3.92-9.9,2,1.89,2.81,4.45,3.93,6.87l-0.87-3c1.51,1.23,1.87,3.06,2.66,4.71,0.45-.45-0.08-1.17.65-1.68l2.88,10c0.46-1.38-.54-2.48-0.58-4.07,1.09,0.94,1.11,2.18,1.81,3.31l-0.69-6.23c1.1,0.49.79,1.59,1.39,2.32a21.94,21.94,0,0,1,.32-6.56c0.8,1.11.38,2,.73,3.15a20.87,20.87,0,0,1,1-7.86c0.69,1.29.14,2.13,0.14,3,0,4.63,0,9.27-.35,13.88A15,15,0,0,0,55.84,106c2.51-4.81,3.6-10.45,9.05-13-1.17,2.35-2.77,4.46-3.54,7.42C65,96.55,68.85,94.11,74,95.07l0.17,0.46-3.37,1.08c2,0.1,4-.24,6,0a20.11,20.11,0,0,1,6.42,1.33c-2.43.7-4.67,0.17-6.7,1.37,1.51,0.41,3-.12,4.74.79-3.4.67-6.48,1.16-9.27,2.83,0.82,0.49,1.8-.12,2.76.72a36.16,36.16,0,0,0-6.18,3.27c1.2,0.44,2.5.24,3.63,1.34-2.28.34-4.28,0.7-5.88,2.25a19.36,19.36,0,0,1,2.9-.29,4.65,4.65,0,0,1,3,.87c-3.91.74-7.44,1.5-10.79,4,4-.9,7.63-1.8,11.41-0.56-1.59.52-3.19,1-4.76,1.57a15.15,15.15,0,0,0-4.83,2.8c4-.47,7.58-0.68,11.11.58-3.61.68-7.2,1.34-10.52,3a17.73,17.73,0,0,1,6.33.58c-1.78,1.07-4,1-5.64,2.77l3.37,0.47a0.56,0.56,0,0,1,.63.4c0,0.36-.27.43-0.5,0.56a14.93,14.93,0,0,0-3.14,2.12,1.38,1.38,0,0,0-.7,1.54,1.35,1.35,0,0,0,1.38.72c1.5,0,1,.64.41,1.35-2.47,2.94-3.1,6.32-2.38,10.34,1.57-2.92,2.94-5.59,4.44-8.19a63.25,63.25,0,0,1,9.2-12.88,40.53,40.53,0,0,0,4.54-6.3,11.43,11.43,0,0,1,3.94-4c0,1.78-1,3.09-1.09,4.78,2-1.54,3.15-3.87,5.64-5.36l-1.54,3.3c2.49-1.45,4.64-2.66,7.76-2.24-2.13,1.32-4.16,2.1-5.78,4.26,3.88-1.19,7.36-2.76,11.38-.66a13.62,13.62,0,0,0-5,1.85c3.1-.35,6-0.38,8.81.87-2,.64-4.05.62-6,1.51,3.17,0.54,6.07,1.41,8.16,4a23.66,23.66,0,0,0-6.62-1.33,11.63,11.63,0,0,1,3.26,2.79,1,1,0,0,1,.34,1c-0.22.44-.67,0.25-1,0.21a1.24,1.24,0,0,0-1.46.44,1.33,1.33,0,0,0,.55,1.3,23.49,23.49,0,0,1,1.63,2.22c-2.59-.74-4.52-2.53-6.86-4.16,0.33,1.88,1.61,3,2.47,4.66a10,10,0,0,1-4-2.31c-0.15,1,.66,1.85.06,3.26-1.42-3-4.33-3.49-6.81-5l0.76,2c-0.85,0-1.09-.67-1.56-1-0.62-.38-1.29-1.31-2-0.72-0.52.44,0,1.34,0.41,1.94,0.5,0.84,1.08,1.63,1.92,2.87l-5.35-1.84c0.25,1.43,1.72,1.83,2,3-0.87.27-1.37-.51-2.23-0.5,0.19,0.5.82,0.76,0.75,1.44a8.42,8.42,0,0,1-2.23,0c-1,.1-2.71-0.39-1,1.61-1.44.3-2.66,0.61-3.91,0.78-0.81.11-1.06,0.35-.79,1.17,0.63,1.94.6,2-1.58,1.65,0.65,1.53-.15,2-1.46,2.36A7.25,7.25,0,0,0,69.85,145a71.64,71.64,0,0,1,19.88-6.8,41,41,0,0,1,20.7,1.44,20.66,20.66,0,0,0-7.35,1.07,8.74,8.74,0,0,1,6.08,2.28c-2.34.14-4.3-1.09-6.55-.36,2.55,1.23,5.13,2.24,6.18,5.36-1.43-.28-2-1.47-3.19-1.77,0.06,0.94.88,1.65,0.7,3a11.07,11.07,0,0,0-4.83-3.1,10.3,10.3,0,0,1,2.68,4.59c-1.61-1.25-3.06-2.67-5.3-3.27,0.49,0.87.92,1.6,1.3,2.34a8.35,8.35,0,0,1,.81,4.5,1.5,1.5,0,0,0,.67,1.71c3.44,1.73,5.61,4.73,7.73,7.77a52.88,52.88,0,0,0,3.31,4.13c-2.57-.66-4.28-2.6-6.18-4.27a109.68,109.68,0,0,0,6.8,12.22c0.91-3,1.74-5.64,2.54-8.32,4.19-14,8.81-27.85,14.06-41.48a5.31,5.31,0,0,0,.24-3.94c-0.61-1.68-1.06-3.42-1.73-5.11a19,19,0,0,0-.57,6.12c-2.17-2.81-1.68-6.05-1.7-9.26A52.83,52.83,0,0,0,122,126.25c-1.39-1.68-1-4.59,1.31-12-2.07,1.87-4.07,3.73-7.31,4.68,2.1-2.9,4.55-5,6-8.14l-7,1.93-0.28-.46c13.91-10.52,23.47-25,35.1-37.65-2.81,1.08-5,3-7.36,4.68-2,1.45-3.44,3.16-3.09,5.83-1.09-.18-0.88-1.11-1.58-1.42-0.95.88-.81,2.24-1.27,3.35-0.15.37-.09,1-0.69,0.95s-0.38-.6-0.45-1a2.67,2.67,0,0,0,0-.33c-0.29-.82-0.48-2-1.41-2s-0.81,1.26-1,2a15.75,15.75,0,0,0-.17,4c-1.22-.48-1.52-1.61-2.28-2.27-0.35-.31-0.57-1-1.16-0.71a1.11,1.11,0,0,0-.35,1.2c0,1.69,0,3.38,0,5.18-1.16-.22-1.13-1.33-2-1.85,0,1,0,1.88,0,2.75,0,0.31.06,0.72-.38,0.81a0.69,0.69,0,0,1-.63-0.44l-1.35-1.69c-1.09,2.11.07,4.29-.78,6.51-1.35-1.88-1.92-4-3.71-5.79-0.23,2.32,0,4.46-.82,6.43-0.87-.15-0.75-1.33-1.66-1.34a5,5,0,0,0-.19,2.57c0,0.42.27,1-.24,1.19s-0.72-.36-1.05-0.63c-0.16-.13-0.34-0.25-0.61-0.44-0.55,1.66.15,3.21,0.08,5.26a17.71,17.71,0,0,1-2.73-5.3c-0.42,2.65.07,5,0,7.35-1.41-1.31-1.8-3.12-2.34-5.3a88.45,88.45,0,0,0-4.25,11.53,20.58,20.58,0,0,1,.46-9.81c-0.68-.29-0.77.69-1.43,0.42a22.42,22.42,0,0,1,2.91-7.49c-1.26.23-1.55,1.34-2.38,1.72-0.05-2.13,1.87-4.58,7.94-10.12-1.82.19-3.12,1.18-4.66,1.72a6.8,6.8,0,0,1,3-3.13c2.66-1.17,3.17-2.9,2.13-5.42a9.21,9.21,0,0,1-.29-2c-1.88,2.51-3.6,4.81-4.56,7.76-1-1.09-.68-2.24-0.64-3.63a29.21,29.21,0,0,0-2.25,5.73c-0.2.63-.14,1.5-1.32,1.11-0.47-.16-0.8.5-1.07,0.9a15.89,15.89,0,0,0-1.67,3.95,1.08,1.08,0,0,1-.72,1.07c-0.45-1-.06-2,0-3.3-2,2.6-2.81,5.46-3.61,8.58-1.09-1-.76-2.14-1.08-3.25-2.3,3-2.62,6.48-3.34,9.86-2.07-6.63,5.24-25,18.55-34.9-0.92-.32-2,0.2-3-0.5a4.21,4.21,0,0,1,2.09-.85c3.12-1.13,6-2.76,9-4.12a2.46,2.46,0,0,0,1.12-1.37c0.62-1.28,1.26-2.56,2-4.13-3.37,1.78-5.69,4.33-8.12,7.36,0.11-2.11,1-3.48,1.57-5-1.3.84-2.17,2.18-4,3l1.37-3.52a30.59,30.59,0,0,1-6,6.41,56,56,0,0,0,3.34-9.1,15.37,15.37,0,0,0-2.43,3.68c-0.74,1.29-1.46,2.6-2.31,3.81a8.81,8.81,0,0,1-3.31,3.21,47.48,47.48,0,0,0,2.52-4.76,24.81,24.81,0,0,0,1.27-5.24c-2,3.5-4.1,6.84-7.76,8.84,0.42-1.5,1.57-2.64,1.74-4.39C99.18,71.4,97,74,93.93,75.59c2.12-3.38,5-6.22,6.62-10-5.47,3.83-9.61,9.65-16.63,11.16,4.82-4.16,9.36-8.58,14.14-13.4-3.34,1.56-6.15,3.42-9.6,3.57a1.22,1.22,0,0,1,.05-0.45c3.37-1.69,6.23-4.14,9.27-6.32,3.92-2.8,8.52-3.48,13.08-4.28a49.73,49.73,0,0,1,9.51-1.06c1.46,0,2.11-1.22,3.46-2.06-3.07-.33-5.29,1.06-7.7,1.94a12.74,12.74,0,0,1,4.72-4.37,5.78,5.78,0,0,0-3.29.35c-1.07.38-2.1,0.84-3.3,1.33,0.19-1.44,1.21-2.14,2.24-3.17-1.73,0-3,.91-4.36,1.21,0.34-2.16,2-3,8.7-4.32-2.31-1.42-4.91-1.18-7.44-1.53,1.19-1.42,3.89-1.7,7.66-.83a24.69,24.69,0,0,0-8.37-3.82,16.85,16.85,0,0,1,5.12-.12,59.34,59.34,0,0,1,26.75,9.81c0.66,0.43,1.24.93,1.89-.13,0.89-1.46.78-1.72-.9-2-1.24-.22-2.43-0.68-3.65-1-0.53-.14-0.63-0.4-0.31-0.81s0.55-.67.9-1.08c-1.1-.64-2.22-0.41-3.28-0.53-0.58-.06-1.39.38-1.68-0.21s0.74-.82.92-1.54c-0.93-.16-1.72.5-2.75,0.46a3.57,3.57,0,0,1,1.4-1.74c0.54-.54,1.14-1,2.07-1.85-2.77.23-4.93,1.27-7.26,1.6,1.17-1.46,2.48-2.72,3.16-4.43a1.13,1.13,0,0,0,.18-1.23,1,1,0,0,0-1.36.11c-1.06.63-2.07,1.34-3.22,2.1-0.12-1,.91-1.5.75-2.41-3,1.26-6.43,1.71-8.49,5.14-0.44-1.7.43-2.68,0.51-3.9-1.59.86-2.93,2-5.14,2.46,1.41-2.07,2.92-3.64,4-6-3.22,2-6,4.24-9.38,5.1L112.54,37c1-.85,1.94-1.68,2.86-2.57a1.34,1.34,0,0,0,.58-1.45c-0.26-.59-1-0.4-1.48-0.5s-1.38.36-1.6-.4c-0.18-.59.47-1.08,0.87-1.51a14.52,14.52,0,0,1,3.75-2.62,19.06,19.06,0,0,0-8,.92c2.65-3.14,6.39-3.67,10.41-4.2a39.19,39.19,0,0,0-7.44-2.24c1.56-1.08,4.48-1.17,10.66-.37a2.88,2.88,0,0,0-1.5-1.13c-0.58-.31-1.17-0.61-1.78-0.88a4.52,4.52,0,0,1-2-.85c4.79-2.08,8.82.3,13.33,2-1.54-2.81-4-3.91-6-5.59,3.48-.34,6.11,1.42,8.79,3.6-0.22-1.57-1.26-2.65-1.6-4.44,2.67,2.12,4,4.93,6.3,7.17,0-2.17-.94-3.92-1.08-6A6.74,6.74,0,0,1,140.89,19c1.38,2.19,2.6,4.48,3.89,6.72A36.69,36.69,0,0,0,148.6,31a1.51,1.51,0,0,0,1.4.71,50.72,50.72,0,0,1,9.58-.1c-3.25-2.92-7.34-3.89-11.36-5.12,4.75-1.22,9.37-.41,14.38.85-4.06-3.15-8.54-4-13.46-4.88,2.47-1.33,4.65-1,7.2-.69a10.52,10.52,0,0,0-7.5-2.6c1.63-1.45,3.23-1.36,4.93-1.57a33.81,33.81,0,0,0-8.19-4.19c1.37-1,2.76-.25,4.12-0.72A34.41,34.41,0,0,0,138,9.2c2.24-.93,4.13-0.69,6-1C141.48,6.94,138.7,7,136,6.61a16.85,16.85,0,0,1,7.35-1.71,35.58,35.58,0,0,1,7.59.2c-1.37-1.1-3.21-.86-4.7-1.71,1.67-1.22,4.86-1,8.51.39,2.76,1.08,4.85,3.12,7.27,5.3-0.93-3.55-2.88-6.14-4.93-9.08a6.78,6.78,0,0,1,3.56,1.85c2.84,2.54,4.3,5.94,5.95,9.26,4.49,9.06,5.31,18.66,4.32,28.53a14.44,14.44,0,0,1-.28,3c2.08-4.95,4.42-9.74,6.9-14.47,0.8-1.53.92-3.28,1.36-4.93A23.18,23.18,0,0,1,183,14.35a1.42,1.42,0,0,1,1.16-.84,28.22,28.22,0,0,0-1.57,5.61c2.45-4.07,5-7.84,9.42-10.16-0.1,1.33-1.39,1.74-1.57,3a25.69,25.69,0,0,1,7.36-3.84c0.3,0.8-.71,1-0.67,1.7a22.19,22.19,0,0,1,10-1.54A96.29,96.29,0,0,0,196,14c2.09,0.24,4.06.28,5.63,1.8-2.34.25-4.73,0-7.18,0.7a17.93,17.93,0,0,1,5.26,2.14c-1.78.63-3.47-.12-5,0.46,0,0.88,1.56,1,1.08,1.81-0.39.67-1.44,0.21-2.18,0.34-0.45.08-1.13-.18-1.28,0.44s0.49,0.66.85,0.88c0.88,0.55.45,0.83-.21,1a21.68,21.68,0,0,1-5.88.75c2,1.85,4.36,2.35,6.72,3.59-2.26,1-4.48.42-6.54,1.18,0.44,1.08,1.89,1.1,2.35,2.16-1,.72-2.17.41-3.19,0.81,0.26,0.83,1.41.59,1.49,1.58a32.87,32.87,0,0,1-5,.63c-0.45.06-1.16,0-1.28,0.54s0.53,0.78.9,1.07c0.61,0.47,1.27.87,1.91,1.31a0.59,0.59,0,0,1,.41.63,0.56,0.56,0,0,1-.69.29A8.62,8.62,0,0,0,180,39a1.17,1.17,0,0,0-1,.81,1.2,1.2,0,0,0,1.07.88c2.4,1,3.08.83,4.85-.93,4.66-4.62,9.28-9.3,14.91-12.78a1.17,1.17,0,0,1,1.33-.34,26.32,26.32,0,0,0-4.41,5.72c3.83-3.07,7.78-5.88,12.58-7.25-1.75,1.74-4.06,2.81-5.69,5.24a15.94,15.94,0,0,1,5.41-2.18,0.81,0.81,0,0,1,.92.12c0.29,0.5-.26.62-0.53,0.84a8.83,8.83,0,0,0-2.12,2.29c3.23-1.18,6.22-2.17,9.46-2.14-2.61,1.29-5.31,2.35-8,3.87,1.48,0.79,3.16.68,4.51,1.71-1.82.42-3.72,0.22-5.61,0.79,1.52,1.06,3.24,2,3.66,4.61a16.89,16.89,0,0,0-4.54-3.05c-1-.38-1.71-0.58-1.36,1a3.33,3.33,0,0,1-1,3.35c-0.34-1.66-.17-3.37-1.54-4.83A11.23,11.23,0,0,1,201,43.39c-0.26.36-.38,1.1-1,0.87s-0.23-.78-0.23-1.19a3.46,3.46,0,0,0-1.42-3.13,24.49,24.49,0,0,1,.19,2.75c0,0.92-.45,1.43-1.31.57-1-1-2.19-1.12-3.75-.62a9.21,9.21,0,0,1,4.72,4.74c-2.05-1-3.78-1.62-5.83-1.23,1.18,1.43,2.89,2.41,3.32,4.72-2-1-3.51-2.51-5.82-2.26a9.15,9.15,0,0,1,2.7,2.68c-1.25.14-2-.85-3.18-0.82a7.2,7.2,0,0,1,.77.84,1.14,1.14,0,0,1,.4,1.18c-0.32.51-.78,0-1.18-0.06a8,8,0,0,0-3.33-.09c0.85,1.58,1.87,2,3.61,1.36a47.56,47.56,0,0,1,8.78-2.3,1.45,1.45,0,0,1,1.43.19c-1.88.93-4.06,0.87-5.56,2.38,8.3-2.88,16.47-2.25,24.58.64-2.52.28-5.08-.76-8,0.47,5.31,1.41,10.37,2.69,13.8,7.08-2.85-1.1-5.63-2.45-8.78-2.46,5.16,2.36,10,5.09,12.7,10.45-2.16-1.25-4.2-2.71-7.11-3.21,3.23,2.06,6.23,3.89,6.87,7.76a15.46,15.46,0,0,0-4.85-3.66c0.52,1.64,1.29,3.06,1.15,4.66,0,0.36.12,0.87-.37,1s-0.55-.45-0.72-0.75a11.94,11.94,0,0,0-4.41-4.52c0.82,1.66,1.53,3,1.49,4.45a6.07,6.07,0,0,1-1.64,4.22c0-4-1.13-7-5-8.51,0.45,1,.84,1.88,1.19,2.74a0.79,0.79,0,0,1-.1,1.06c-0.54.3-.58-0.32-0.76-0.6a3.41,3.41,0,0,0-1.79-1.61c0,2.3,0,4.58-1.91,6.32a11.38,11.38,0,0,0-2.56-8.12,16.49,16.49,0,0,0-4.56-4c-1.57-1-2.92.24-4.75,0.64,2.33,1.22,4.73.82,6.85,1.93-1,.93-2.15.38-3.32,0.88,2.16,1.38,4.13,2.81,4.89,5.73-2.14-1-3.68-2.69-6.27-2.6,2.57,2.94,5.44,5.54,4.69,10.05-1.24-1.21-2-2.57-3.68-3.32,1.43,2.91,2.52,5.71,2.28,8.86-1.19-1.57-2.05-3.34-3.79-5a15.57,15.57,0,0,1-.71,10.66,1.52,1.52,0,0,0,.49,1.49,25.79,25.79,0,0,1,4,9.18,4.22,4.22,0,0,1,.12.65c0,0.69.36,1.77-.32,1.94s-0.82-1-1.09-1.55a25.25,25.25,0,0,0-4.08-6.84c1.36,5.76,1.92,11-2.61,15.81-0.09-2.24,1.05-3.89,1-6.24a25.77,25.77,0,0,1-8.41,12c0.78-2.4,2.27-4.51,2.4-7.26-1.18,1.43-2,3-3.57,4.06a29.44,29.44,0,0,0,2.69-11.31c-0.82,1.06-1.1,2.32-2.58,3.24a33,33,0,0,0,.57-8.84c-1.05,1.23-1.81,2.39-3.42,2.94,1.05-2.42,1.83-4.67,1.19-7.19-1.88,3.67-2.25,4.15-4,5C184,98,185.11,94,184.63,89.58c-1.36,4-2.8,8-6,11.07,0.86-4,2-7.84,1.23-12.33-1.9,3.92-3.73,7.44-7,10a41.14,41.14,0,0,0,3.26-12.42c-1.42,2.43-2.67,4.78-4.8,6.45,0-1.41.76-2.62,1-4a8.27,8.27,0,0,0-.15-4.44c-0.57,1.67-2.15,2.43-2,3.94A38.32,38.32,0,0,0,171.37,92.32ZM93,173.54c0.63,2.43,1.48,4.45,1.32,6.62a9.6,9.6,0,0,1-2.39,6c-0.28-1.72.53-3,.17-4.52a18.89,18.89,0,0,1-5.63,9.69c0.46-1.92,1.29-3.71,1.25-5.74-0.92,1-1.17,2.57-2.59,3.29a18.56,18.56,0,0,0,1.12-8.56c-0.68.54-.53,1.51-1.5,1.75-0.35-2.14.2-4.35-.64-6.47-0.69.8-1,1.83-2.33,2a9.39,9.39,0,0,0,.31-5.27,8.79,8.79,0,0,1-2.88,4.24c0.37-1.54.69-2.64,0.89-3.76s0.25-2.19.4-3.28a12,12,0,0,0-.36-3.26c-0.88,3.17-1.54,6.39-3.93,8.92,0.4-3.15.83-6.27,0-9.66-0.76,1.74-1.34,3.17-2,4.55a2.26,2.26,0,0,0,0,2.19q6.45,13.32,12,27c3.42,8.42,6.73,16.89,9.54,25.54,1.11,3.44,2.26,6.86,3.43,10.4a2.61,2.61,0,0,0,.23-0.51c1.82-11,4.27-21.83,6.92-32.63q3-12,6.38-24a1.6,1.6,0,0,0-.44-2,22.88,22.88,0,0,1-5.28-6.52l-3.39-5.6c0.26,3.37,1.64,6.35,2.61,9.49-2-1.78-3-4.23-4.26-6.69-0.25,1.33.34,2.36,0.25,3.8-2.43-2.56-3.13-5.53-4-8.47a19.77,19.77,0,0,0,.44,8c-2.45-2.85-2.32-6.59-3.54-10.15-0.41,2.74.35,5.13,0.17,7.58a22.73,22.73,0,0,1-2.94-5.86L92.52,164c-1.47-.68-1.61-2.17-2.49-3.27,0.08,1.42.69,2.67,0,4.3a22.51,22.51,0,0,0-4.33-7.32c0.22,1.6.39,3,.62,4.38a1.44,1.44,0,0,0,.53.79,37.49,37.49,0,0,1,5.85,6.27c2.17,2.71,4.4,5.4,5.06,9,0.08,0.42.33,1-.1,1.22-0.65.27-.71-0.49-0.94-0.87A18.54,18.54,0,0,0,93,173.54Zm-51.4,5.38-3.64-1.8c0.34,2.1,1.28,3.65,1.81,5.3-0.72.29-1-.47-1.56-0.19-0.13.77,0.91,1.6,0.2,2.14s-1.21-.85-2.17-0.59A23.27,23.27,0,0,0,38,188.11c0.9-1.61,1.74-3,2.43-4.39,0.84-1.73,1.59-3.51,2.33-5.28,0.92-2.19.81-2.65-1-4.18a1,1,0,0,0-1.13-.45,1.06,1.06,0,0,0-.2,1.07C40.45,176.21,41.22,177.35,41.56,178.92Zm80.7-95.68c-0.08-1,0-2.16-1.1-2.55s-1.67.6-2.27,1.29a13.38,13.38,0,0,0-2,3.22,1,1,0,0,0-.24,1.06c0.29,0.4.73,0.08,1.06,0,1.14-.39,2.24-0.9,3.39-1.26A1.42,1.42,0,0,0,122.26,83.24Zm28.22-49.79,1.17,2a1.63,1.63,0,0,0,1.81,1.08,27.35,27.35,0,0,1,6.84-.14A32.86,32.86,0,0,0,150.48,33.45ZM94.22,149c0.25,1.25-.37,2.59.58,3.28a19.57,19.57,0,0,0,5.05,2.47A9.33,9.33,0,0,0,94.22,149ZM45,172.21l4.35-10.46a28.24,28.24,0,0,0-4.4,6.4A3.75,3.75,0,0,0,45,172.21ZM188.95,76.76a9.68,9.68,0,0,0-2.56,3,0.85,0.85,0,0,0,.22,1.29,21.13,21.13,0,0,0,3.1,2.3L189.92,80c-0.75.17-.65,1.23-1.62,1.19C188.42,79.7,189.59,78.43,188.95,76.76ZM172.84,53.29l6.79-7.5c-1.2.15-2.51-.17-3.23,1A28.2,28.2,0,0,0,172.84,53.29ZM153.21,37.82c1.81,3.79.93,3,5.61,2.53C157.29,38.73,155.38,38.26,153.21,37.82ZM33.81,135.2c3.54,1.75,3.79,1.06,4.39-1.9,0.06-.28.16-0.73-0.29-0.81a0.94,0.94,0,0,0-.65.39c-0.46.58-.88,1.2-1.32,1.8-0.67-.47,0-1-0.25-1.49Z"/></svg>